%TF.GenerationSoftware,KiCad,Pcbnew,9.0.5*%
%TF.CreationDate,2025-10-23T13:35:12+02:00*%
%TF.ProjectId,AETS-CZ-NB-3L0Y7S3,41455453-2d43-45a2-9d4e-422d334c3059,rev?*%
%TF.SameCoordinates,Original*%
%TF.FileFunction,Paste,Bot*%
%TF.FilePolarity,Positive*%
%FSLAX46Y46*%
G04 Gerber Fmt 4.6, Leading zero omitted, Abs format (unit mm)*
G04 Created by KiCad (PCBNEW 9.0.5) date 2025-10-23 13:35:12*
%MOMM*%
%LPD*%
G01*
G04 APERTURE LIST*
G04 Aperture macros list*
%AMRoundRect*
0 Rectangle with rounded corners*
0 $1 Rounding radius*
0 $2 $3 $4 $5 $6 $7 $8 $9 X,Y pos of 4 corners*
0 Add a 4 corners polygon primitive as box body*
4,1,4,$2,$3,$4,$5,$6,$7,$8,$9,$2,$3,0*
0 Add four circle primitives for the rounded corners*
1,1,$1+$1,$2,$3*
1,1,$1+$1,$4,$5*
1,1,$1+$1,$6,$7*
1,1,$1+$1,$8,$9*
0 Add four rect primitives between the rounded corners*
20,1,$1+$1,$2,$3,$4,$5,0*
20,1,$1+$1,$4,$5,$6,$7,0*
20,1,$1+$1,$6,$7,$8,$9,0*
20,1,$1+$1,$8,$9,$2,$3,0*%
G04 Aperture macros list end*
%ADD10R,0.850000X0.600000*%
%ADD11R,1.020000X1.140000*%
%ADD12RoundRect,0.175000X0.250000X-0.175000X0.250000X0.175000X-0.250000X0.175000X-0.250000X-0.175000X0*%
%ADD13RoundRect,0.225000X0.225000X0.450000X-0.225000X0.450000X-0.225000X-0.450000X0.225000X-0.450000X0*%
%ADD14RoundRect,0.225609X0.236891X0.424391X-0.236891X0.424391X-0.236891X-0.424391X0.236891X-0.424391X0*%
%ADD15RoundRect,0.228261X0.296739X1.071739X-0.296739X1.071739X-0.296739X-1.071739X0.296739X-1.071739X0*%
%ADD16RoundRect,0.225000X0.450000X-0.225000X0.450000X0.225000X-0.450000X0.225000X-0.450000X-0.225000X0*%
%ADD17RoundRect,0.200000X-0.200000X-0.225000X0.200000X-0.225000X0.200000X0.225000X-0.200000X0.225000X0*%
%ADD18RoundRect,0.225609X-0.236891X-0.424391X0.236891X-0.424391X0.236891X0.424391X-0.236891X0.424391X0*%
%ADD19RoundRect,0.225000X-0.450000X0.225000X-0.450000X-0.225000X0.450000X-0.225000X0.450000X0.225000X0*%
%ADD20R,0.700000X0.850000*%
%ADD21RoundRect,0.175000X-0.175000X-0.250000X0.175000X-0.250000X0.175000X0.250000X-0.175000X0.250000X0*%
%ADD22RoundRect,0.225000X-0.225000X-0.450000X0.225000X-0.450000X0.225000X0.450000X-0.225000X0.450000X0*%
G04 APERTURE END LIST*
D10*
%TO.C,RV1*%
X520340000Y-115614000D03*
X520340000Y-113814000D03*
%TD*%
D11*
%TO.C,D11*%
X602000000Y-67187500D03*
X602000000Y-70187500D03*
%TD*%
D12*
%TO.C,R52*%
X560400000Y-106850000D03*
X560400000Y-105200000D03*
%TD*%
D13*
%TO.C,C29*%
X519650000Y-25500000D03*
X517750000Y-25500000D03*
%TD*%
D14*
%TO.C,R12*%
X519625000Y-28400000D03*
X517800000Y-28400000D03*
%TD*%
D11*
%TO.C,D12*%
X602000000Y-10195000D03*
X602000000Y-13195000D03*
%TD*%
%TO.C,D14*%
X602025000Y-95450000D03*
X602025000Y-98450000D03*
%TD*%
D15*
%TO.C,C38*%
X609430000Y-155260000D03*
X606480000Y-155260000D03*
%TD*%
D10*
%TO.C,RV2*%
X520340000Y-112114000D03*
X520340000Y-110314000D03*
%TD*%
D16*
%TO.C,C53*%
X602000000Y-35800000D03*
X602000000Y-33900000D03*
%TD*%
D14*
%TO.C,R61*%
X519555000Y-86820000D03*
X517730000Y-86820000D03*
%TD*%
D17*
%TO.C,C15*%
X562150000Y-81100000D03*
X563700000Y-81100000D03*
%TD*%
D12*
%TO.C,R10*%
X564200000Y-78750000D03*
X564200000Y-77100000D03*
%TD*%
D18*
%TO.C,R3*%
X525625500Y-115152500D03*
X527450500Y-115152500D03*
%TD*%
D14*
%TO.C,R4*%
X527450500Y-110652500D03*
X525625500Y-110652500D03*
%TD*%
D11*
%TO.C,D13*%
X602000000Y-38400000D03*
X602000000Y-41400000D03*
%TD*%
D13*
%TO.C,C68*%
X519630000Y-84320000D03*
X517730000Y-84320000D03*
%TD*%
D19*
%TO.C,C9*%
X522640000Y-110114000D03*
X522640000Y-112014000D03*
%TD*%
D16*
%TO.C,C45*%
X602000000Y-64587500D03*
X602000000Y-62687500D03*
%TD*%
D14*
%TO.C,R13*%
X519725000Y-55750000D03*
X517900000Y-55750000D03*
%TD*%
D20*
%TO.C,D15*%
X556320000Y-99600000D03*
X557920000Y-99600000D03*
%TD*%
D21*
%TO.C,R11*%
X559950000Y-83000000D03*
X561600000Y-83000000D03*
%TD*%
D13*
%TO.C,C31*%
X519750000Y-52950000D03*
X517850000Y-52950000D03*
%TD*%
D22*
%TO.C,C7*%
X527525500Y-112952500D03*
X529425500Y-112952500D03*
%TD*%
D16*
%TO.C,C46*%
X602000000Y-7595000D03*
X602000000Y-5695000D03*
%TD*%
D19*
%TO.C,C8*%
X522640000Y-113814000D03*
X522640000Y-115714000D03*
%TD*%
D16*
%TO.C,C54*%
X602025000Y-92850000D03*
X602025000Y-90950000D03*
%TD*%
D15*
%TO.C,C37*%
X609375000Y-133350000D03*
X606425000Y-133350000D03*
%TD*%
M02*
