M48
; DRILL file {KiCad 9.0.5} date 2025-10-23T13:35:18+0200
; FORMAT={-:-/ absolute / metric / decimal}
; #@! TF.CreationDate,2025-10-23T13:35:18+02:00
; #@! TF.GenerationSoftware,Kicad,Pcbnew,9.0.5
; #@! TF.FileFunction,Plated,1,4,PTH
FMAT,2
METRIC
; #@! TA.AperFunction,Plated,PTH,ViaDrill
T1C0.300
; #@! TA.AperFunction,Plated,PTH,ViaDrill
T2C0.400
; #@! TA.AperFunction,Plated,PTH,ComponentDrill
T3C0.400
; #@! TA.AperFunction,Plated,PTH,ComponentDrill
T4C0.600
; #@! TA.AperFunction,Plated,PTH,ComponentDrill
T5C0.850
; #@! TA.AperFunction,Plated,PTH,ComponentDrill
T6C0.900
; #@! TA.AperFunction,Plated,PTH,ComponentDrill
T7C1.000
; #@! TA.AperFunction,Plated,PTH,ComponentDrill
T8C1.100
; #@! TA.AperFunction,Plated,PTH,ComponentDrill
T9C1.500
; #@! TA.AperFunction,Plated,PTH,ComponentDrill
T10C1.600
; #@! TA.AperFunction,Plated,PTH,ComponentDrill
T11C2.000
; #@! TA.AperFunction,Plated,PTH,ComponentDrill
T12C2.200
; #@! TA.AperFunction,Plated,PTH,ComponentDrill
T13C3.200
; #@! TA.AperFunction,Plated,PTH,ComponentDrill
T14C3.640
%
G90
G05
T1
X510.95Y-64.7
X510.95Y-76.45
X511.0Y-1.85
X511.0Y-10.975
X511.0Y-67.825
X511.0Y-70.7
X511.0Y-73.925
X511.05Y-4.975
X511.05Y-7.85
X511.05Y-14.1
X511.05Y-16.975
X511.05Y-36.95
X511.05Y-95.075
X511.05Y-97.125
X511.1Y-40.075
X511.1Y-42.95
X511.15Y-135.7
X511.2Y-133.375
X511.2Y-138.825
X511.2Y-141.7
X511.35Y-154.1
X511.35Y-157.325
X513.525Y-1.625
X513.55Y-141.125
X513.65Y-137.7
X513.7Y-158.45
X514.85Y-142.475
X514.95Y-136.375
X514.95Y-139.4
X516.0Y-40.625
X516.125Y-69.475
X516.75Y-1.625
X516.925Y-158.45
X517.7Y-139.875
X518.575Y-45.075
X518.6Y-147.325
X518.6Y-148.575
X518.8Y-153.65
X518.95Y-138.9
X518.975Y-116.45
X519.075Y-110.35
X519.2Y-149.475
X519.55Y-45.825
X519.55Y-82.475
X519.625Y-23.775
X519.625Y-30.15
X519.625Y-88.7
X519.725Y-51.275
X519.75Y-57.625
X519.825Y-74.375
X520.125Y-154.85
X520.25Y-1.625
X520.25Y-139.975
X520.425Y-158.45
X520.45Y-69.3
X520.975Y-100.375
X521.075Y-28.425
X521.075Y-73.0
X521.125Y-25.45
X521.25Y-86.85
X521.275Y-84.325
X521.375Y-109.025
X521.375Y-117.0
X521.4Y-145.85
X521.4Y-153.65
X521.425Y-148.35
X521.8Y-53.0
X522.275Y-99.175
X522.375Y-65.85
X522.7Y-154.875
X522.975Y-41.4
X523.25Y-37.2
X523.4Y-108.825
X523.475Y-1.625
X523.65Y-100.325
X523.65Y-158.45
X523.75Y-64.7
X524.15Y-115.6
X524.175Y-110.125
X524.175Y-137.5
X524.2Y-153.65
X524.45Y-36.25
X525.075Y-99.2
X525.175Y-65.85
X525.475Y-136.3
X525.7Y-87.2
X525.725Y-29.225
X525.775Y-56.125
X525.962Y-70.938
X526.3Y-42.5
X526.35Y-1.625
X526.45Y-100.35
X526.525Y-158.45
X526.575Y-37.7
X526.775Y-30.275
X526.875Y-57.15
X526.9Y-66.325
X526.9Y-88.275
X526.9Y-139.6
X527.0Y-137.5
X527.55Y-69.8
X527.575Y-147.65
X527.65Y-148.725
X527.8Y-29.4
X527.975Y-56.325
X528.5Y-37.9
X529.0Y-30.575
X529.1Y-116.2
X529.175Y-43.55
X529.3Y-107.25
X529.325Y-57.475
X529.375Y-89.7
X529.4Y-111.125
X529.425Y-114.375
X529.475Y-1.575
X529.625Y-88.6
X529.65Y-158.4
X529.875Y-67.8
X530.4Y-42.0
X530.45Y-29.6
X530.575Y-88.6
X530.7Y-69.5
X530.775Y-108.675
X530.775Y-134.275
X530.85Y-56.625
X530.85Y-120.25
X530.975Y-87.5
X531.125Y-5.575
X531.3Y-39.55
X532.161Y-31.211
X532.275Y-99.35
X532.4Y-18.75
X532.525Y-4.475
X532.525Y-58.225
X532.7Y-110.8
X532.7Y-115.1
X532.875Y-1.55
X533.05Y-158.375
X533.7Y-29.925
X533.8Y-57.525
X533.875Y-5.55
X533.9Y-115.1
X535.125Y-113.975
X535.825Y-41.0
X535.825Y-50.725
X536.1Y-1.55
X536.275Y-158.375
X536.625Y-63.975
X536.625Y-74.125
X536.95Y-138.45
X538.375Y-88.875
X538.375Y-91.725
X538.475Y-60.1
X538.975Y-1.55
X539.15Y-158.375
X539.65Y-6.5
X540.0Y-114.425
X541.5Y-4.825
X541.899Y-91.801
X541.9Y-89.25
X542.1Y-1.5
X542.275Y-158.325
X542.6Y-100.0
X542.9Y-35.6
X543.0Y-132.35
X543.375Y-6.5
X544.3Y-100.0
X544.825Y-78.125
X544.825Y-79.375
X544.85Y-75.55
X544.85Y-76.8
X545.45Y-20.15
X545.7Y-105.2
X545.7Y-110.5
X545.7Y-120.2
X545.7Y-127.8
X545.9Y-100.025
X546.025Y-1.475
X546.2Y-158.3
X546.375Y-80.55
X547.25Y-73.325
X547.35Y-14.9
X547.4Y-19.8
X547.65Y-65.675
X548.525Y-74.75
X548.625Y-10.7
X548.725Y-16.025
X548.725Y-18.75
X549.25Y-1.475
X549.425Y-158.3
X549.475Y-36.725
X549.7Y-78.6
X550.4Y-76.525
X550.5Y-9.5
X550.85Y-81.5
X551.175Y-137.025
X551.35Y-20.225
X551.35Y-62.075
X551.4Y-44.975
X551.4Y-53.25
X551.6Y-92.6
X551.8Y-99.625
X551.825Y-23.525
X551.925Y-26.0
X552.0Y-34.925
X552.025Y-28.525
X552.025Y-31.05
X552.025Y-38.5
X552.125Y-1.475
X552.3Y-123.3
X552.3Y-158.3
X552.375Y-10.625
X552.375Y-80.525
X552.425Y-74.15
X552.975Y-22.175
X553.075Y-97.65
X553.125Y-78.757
X553.15Y-110.6
X553.2Y-77.775
X553.235Y-79.575
X553.25Y-24.825
X553.275Y-76.775
X553.3Y-29.675
X553.375Y-32.125
X553.45Y-10.6
X553.575Y-121.675
X553.575Y-124.625
X553.7Y-74.4
X553.85Y-5.95
X553.925Y-72.1
X554.225Y-36.725
X554.475Y-98.55
X554.5Y-96.075
X555.0Y-11.675
X555.25Y-1.425
X555.35Y-100.8
X555.425Y-158.25
X555.5Y-121.9
X555.8Y-87.1
X556.349Y-83.1
X556.375Y-69.5
X556.4Y-96.3
X556.45Y-77.2
X556.575Y-78.2
X556.599Y-76.251
X557.001Y-82.2
X557.175Y-98.1
X557.325Y-75.6
X557.375Y-70.8
X557.85Y-81.2
X558.0Y-121.8
X558.2Y-78.2
X558.275Y-82.225
X558.325Y-83.775
X559.0Y-1.425
X559.0Y-9.8
X559.0Y-98.1
X559.175Y-75.925
X559.175Y-158.25
X559.4Y-81.4
X559.9Y-97.2
X559.9Y-124.6
X559.925Y-69.7
X559.925Y-121.725
X560.2Y-75.25
X560.8Y-96.3
X561.15Y-123.3
X561.275Y-75.075
X561.512Y-71.125
X561.55Y-69.025
X561.675Y-70.05
X561.8Y-58.0
X561.8Y-95.5
X562.0Y-36.75
X562.225Y-1.425
X562.4Y-121.9
X562.4Y-158.25
X562.45Y-124.6
X562.5Y-83.8
X562.8Y-94.6
X562.925Y-76.05
X563.2Y-79.875
X563.4Y-98.9
X563.4Y-102.5
X563.475Y-15.45
X563.5Y-97.1
X563.5Y-100.8
X563.7Y-93.7
X563.725Y-20.225
X563.75Y-86.6
X563.823Y-83.774
X563.9Y-5.95
X564.0Y-58.0
X564.025Y-26.0
X564.075Y-23.525
X564.1Y-82.1
X564.15Y-28.525
X564.275Y-31.0
X564.3Y-96.1
X564.3Y-121.9
X564.425Y-35.0
X564.425Y-38.45
X564.5Y-92.7
X564.7Y-75.6
X564.8Y-80.1
X564.8Y-81.3
X564.9Y-112.5
X565.0Y-98.6
X565.013Y-100.437
X565.05Y-102.3
X565.05Y-106.5
X565.1Y-1.425
X565.1Y-104.2
X565.15Y-22.225
X565.2Y-95.2
X565.275Y-158.25
X565.3Y-91.7
X565.65Y-97.45
X565.674Y-90.326
X565.7Y-24.85
X565.75Y-29.625
X565.75Y-32.575
X565.9Y-85.0
X566.0Y-63.525
X566.1Y-94.3
X566.15Y-88.7
X566.275Y-45.95
X566.601Y-96.549
X566.7Y-36.725
X567.0Y-93.4
X567.5Y-89.5
X567.5Y-92.1
X567.5Y-95.7
X568.097Y-80.15
X568.1Y-83.8
X568.15Y-77.2
X568.175Y-78.725
X568.225Y-1.375
X568.4Y-11.175
X568.4Y-158.2
X568.401Y-94.749
X568.425Y-13.875
X568.7Y-72.1
X569.1Y-90.1
X569.25Y-93.1
X569.3Y-108.4
X569.525Y-12.575
X569.525Y-77.225
X569.9Y-107.2
X570.075Y-76.175
X570.5Y-106.0
X570.575Y-77.3
X570.725Y-15.8
X570.9Y-104.5
X571.3Y-103.0
X571.4Y-93.3
X571.4Y-95.9
X571.4Y-98.4
X571.4Y-100.9
X571.5Y-82.725
X571.55Y-1.3
X571.575Y-63.85
X571.725Y-158.125
X572.725Y-62.65
X573.35Y-84.175
X573.8Y-81.825
X573.825Y-63.85
X573.975Y-77.275
X574.775Y-1.3
X574.95Y-158.125
X575.0Y-82.95
X575.075Y-127.85
X576.85Y-78.5
X577.65Y-1.3
X577.775Y-80.675
X577.825Y-158.125
X577.875Y-51.3
X579.35Y-25.325
X579.45Y-39.875
X579.525Y-12.175
X580.775Y-1.25
X580.95Y-158.075
X582.725Y-51.7
X583.475Y-1.25
X583.65Y-158.075
X585.85Y-57.125
X585.925Y-117.175
X586.7Y-1.25
X586.875Y-158.075
X587.475Y-96.225
X587.525Y-80.975
X587.55Y-74.425
X589.575Y-1.25
X589.75Y-135.575
X589.75Y-158.075
X590.925Y-41.425
X591.475Y-52.95
X591.75Y-108.1
X591.75Y-110.0
X591.8Y-81.7
X591.925Y-79.675
X591.975Y-51.0
X592.0Y-22.775
X592.05Y-24.675
X592.175Y-104.65
X592.35Y-19.45
X592.375Y-47.6
X592.375Y-76.5
X592.7Y-1.2
X592.875Y-158.025
X592.925Y-49.3
X593.1Y-89.3
X593.325Y-78.5
X593.4Y-21.6
X594.225Y-106.475
X594.7Y-22.775
X594.7Y-50.975
X594.75Y-79.775
X594.75Y-108.025
X595.15Y-78.7
X595.4Y-1.2
X595.575Y-158.025
X597.475Y-22.775
X597.475Y-79.675
X597.55Y-50.975
X597.775Y-108.1
X598.275Y-30.8
X598.425Y-60.575
X598.425Y-88.4
X598.625Y-1.2
X598.675Y-136.75
X598.8Y-158.025
X598.875Y-75.075
X598.975Y-77.925
X599.075Y-46.325
X599.1Y-103.325
X599.15Y-49.275
X599.15Y-106.2
X599.325Y-20.75
X599.4Y-18.125
X600.05Y-122.9
X600.25Y-144.625
X600.475Y-5.725
X600.7Y-16.95
X600.85Y-19.95
X600.95Y-47.775
X600.95Y-76.4
X600.95Y-112.925
X600.975Y-73.975
X601.0Y-45.25
X601.05Y-104.8
X601.075Y-27.7
X601.1Y-55.9
X601.1Y-102.075
X601.15Y-84.825
X601.3Y-124.4
X601.425Y-146.225
X601.5Y-1.2
X601.6Y-123.025
X601.675Y-158.025
X602.025Y-89.675
X602.45Y-19.2
X602.45Y-104.275
X602.475Y-57.3
X602.475Y-85.975
X602.5Y-28.95
X602.525Y-47.325
X602.55Y-114.4
X602.8Y-76.1
X602.85Y-61.3
X603.0Y-4.25
X603.075Y-32.475
X603.125Y-143.625
X603.15Y-146.125
X603.175Y-121.725
X603.2Y-124.275
X603.575Y-33.875
X603.65Y-5.675
X603.675Y-90.95
X603.7Y-62.6
X603.85Y-27.725
X603.875Y-21.025
X603.875Y-106.25
X603.9Y-48.975
X603.925Y-77.875
X604.125Y-112.925
X604.15Y-55.9
X604.225Y-84.7
X604.625Y-1.15
X604.8Y-157.975
X604.825Y-125.325
X604.875Y-155.2
X604.9Y-147.325
X604.975Y-133.375
X605.175Y-37.9
X605.225Y-41.025
X605.25Y-54.5
X605.3Y-57.625
X605.325Y-59.325
X605.375Y-9.65
X605.375Y-62.45
X605.4Y-16.575
X605.4Y-26.1
X605.4Y-84.0
X605.425Y-12.775
X605.425Y-30.65
X605.425Y-66.75
X605.425Y-138.575
X605.45Y-19.7
X605.45Y-29.225
X605.475Y-2.225
X605.475Y-33.775
X605.475Y-44.875
X605.475Y-69.875
X605.475Y-136.25
X605.475Y-141.7
X605.475Y-144.575
X605.5Y-47.975
X605.5Y-87.125
X605.525Y-5.35
X605.55Y-90.25
X605.6Y-73.75
X605.6Y-116.525
X605.65Y-76.875
X605.65Y-114.2
X605.65Y-119.65
X605.65Y-122.525
X605.675Y-94.9
X605.725Y-98.025
X605.725Y-148.75
X605.75Y-101.9
X605.8Y-105.025
X605.925Y-126.825
X609.575Y-75.225
X609.575Y-76.35
X609.6Y-77.525
X609.625Y-18.125
X609.625Y-19.25
X609.625Y-46.4
X609.625Y-47.525
X609.625Y-103.325
X609.625Y-104.45
X609.65Y-20.425
X609.65Y-25.575
X609.65Y-48.7
X609.65Y-53.925
X609.65Y-105.625
X609.675Y-26.9
X609.675Y-55.25
X609.675Y-82.725
X609.7Y-84.05
X609.75Y-110.825
X609.775Y-112.15
X610.275Y-76.925
X610.3Y-75.8
X610.325Y-19.825
X610.325Y-48.1
X610.325Y-105.025
X610.35Y-18.7
X610.35Y-46.975
X610.35Y-103.9
X610.375Y-26.15
X610.375Y-54.5
X610.4Y-83.3
X610.475Y-111.4
X611.05Y-26.9
X611.05Y-55.25
X611.075Y-75.25
X611.075Y-84.05
X611.125Y-18.15
X611.125Y-46.425
X611.125Y-103.35
X611.15Y-76.3
X611.15Y-112.15
X611.2Y-19.2
X611.2Y-25.575
X611.2Y-47.475
X611.2Y-53.925
X611.2Y-104.4
X611.225Y-77.225
X611.225Y-82.725
X611.275Y-20.125
X611.275Y-48.4
X611.275Y-105.325
X611.3Y-110.825
X611.875Y-78.65
X611.875Y-79.6
X611.925Y-21.55
X611.925Y-22.5
X611.925Y-23.425
X611.925Y-24.775
X611.925Y-26.15
X611.925Y-49.825
X611.925Y-50.775
X611.925Y-51.775
X611.925Y-53.125
X611.925Y-54.5
X611.925Y-75.725
X611.925Y-106.75
X611.925Y-107.7
X611.95Y-80.575
X611.95Y-81.925
X611.95Y-83.3
X611.975Y-18.625
X611.975Y-46.9
X611.975Y-103.825
X612.025Y-108.675
X612.025Y-110.025
X612.025Y-111.4
X612.25Y-77.35
X612.3Y-20.25
X612.3Y-48.525
X612.3Y-105.45
X612.75Y-75.225
X612.75Y-76.45
X612.75Y-78.1
X612.75Y-79.1
X612.775Y-25.475
X612.775Y-26.9
X612.775Y-53.825
X612.775Y-55.25
X612.8Y-18.125
X612.8Y-19.35
X612.8Y-21.0
X612.8Y-22.0
X612.8Y-24.0
X612.8Y-46.4
X612.8Y-47.625
X612.8Y-49.275
X612.8Y-50.275
X612.8Y-52.35
X612.8Y-82.625
X612.8Y-84.05
X612.8Y-103.325
X612.8Y-104.55
X612.8Y-106.2
X612.8Y-107.2
X612.825Y-81.15
X612.875Y-110.725
X612.875Y-112.15
X612.9Y-109.25
X613.675Y-26.225
X613.675Y-54.575
X613.7Y-23.45
X613.7Y-24.75
X613.7Y-51.8
X613.7Y-53.1
X613.7Y-83.375
X613.725Y-80.6
X613.725Y-81.9
X613.775Y-111.475
X613.8Y-108.7
X613.8Y-110.0
X614.525Y-24.075
X614.525Y-25.6
X614.525Y-26.925
X614.525Y-52.425
X614.525Y-53.95
X614.525Y-55.275
X614.55Y-81.225
X614.55Y-82.75
X614.55Y-84.075
X614.625Y-109.325
X614.625Y-110.85
X614.625Y-112.175
X617.575Y-118.75
X618.225Y-140.9
X619.7Y-155.975
X619.85Y-134.05
X619.85Y-154.6
X619.875Y-153.025
X619.95Y-151.35
X620.0Y-132.675
X620.025Y-131.1
X620.1Y-129.425
X620.675Y-126.825
X620.8Y-147.9
X620.825Y-148.975
X621.0Y-156.9
X621.025Y-152.125
X621.025Y-153.85
X621.05Y-155.3
X621.15Y-134.975
X621.175Y-130.2
X621.175Y-131.925
X621.2Y-133.375
X621.45Y-122.35
X621.575Y-144.675
X621.675Y-117.15
X621.7Y-118.6
X621.75Y-139.05
X621.775Y-140.5
X621.85Y-115.475
X621.925Y-124.6
X621.925Y-137.375
X622.075Y-151.4
X622.075Y-153.0
X622.075Y-154.675
X622.075Y-156.3
X622.1Y-146.25
X622.2Y-116.4
X622.225Y-119.35
X622.225Y-129.475
X622.225Y-131.075
X622.225Y-132.75
X622.225Y-134.375
X622.275Y-117.85
X622.275Y-138.3
X622.3Y-125.95
X622.3Y-141.25
X622.35Y-139.75
X622.65Y-148.0
X623.075Y-156.875
X623.175Y-115.45
X623.225Y-134.95
X623.25Y-137.35
X623.75Y-156.125
X623.875Y-116.35
X623.9Y-134.2
X623.95Y-138.25
X624.05Y-125.325
X624.45Y-146.475
X624.6Y-115.45
X624.675Y-137.35
X625.0Y-148.025
X625.0Y-156.875
X625.15Y-134.95
X625.35Y-116.325
X625.425Y-138.225
X625.675Y-124.65
X625.825Y-156.15
X625.875Y-125.975
X625.95Y-115.425
X625.975Y-134.225
X626.025Y-137.325
X626.15Y-146.575
X626.825Y-116.3
X626.9Y-138.2
X626.925Y-156.875
X627.075Y-134.95
X627.3Y-147.875
X627.6Y-115.425
X627.675Y-137.325
X627.75Y-156.125
X627.9Y-126.1
X627.9Y-134.2
X627.925Y-154.15
X627.975Y-152.225
X628.0Y-118.975
X628.025Y-121.3
X628.075Y-132.225
X628.075Y-140.875
X628.1Y-143.2
X628.125Y-117.925
X628.125Y-120.05
X628.125Y-130.3
X628.125Y-144.95
X628.2Y-139.825
X628.2Y-141.95
X628.225Y-116.375
X628.3Y-138.275
X628.375Y-123.35
X628.475Y-151.3
X628.55Y-156.825
X628.625Y-129.375
X628.625Y-155.25
X628.7Y-134.9
X628.7Y-153.275
X628.775Y-133.325
X628.85Y-131.35
X628.875Y-115.45
X628.95Y-137.35
X628.975Y-121.175
X629.05Y-117.1
X629.05Y-143.075
X629.1Y-118.5
X629.125Y-119.65
X629.125Y-139.0
X629.175Y-140.4
X629.2Y-141.55
X629.275Y-148.675
X629.35Y-156.1
X629.425Y-126.775
X629.45Y-154.075
X629.5Y-134.175
X629.5Y-152.525
X629.6Y-132.15
X629.65Y-130.6
T2
X520.85Y-67.625
X521.45Y-137.55
X522.65Y-39.45
X524.14Y-112.014
X524.14Y-113.814
X524.8Y-151.85
X527.4Y-105.3
X528.45Y-90.4
X531.05Y-82.35
X536.049Y-111.5
X539.55Y-28.7
X539.85Y-55.0
X539.85Y-82.325
X544.15Y-83.6
X553.05Y-118.85
X553.45Y-15.4
X554.8Y-41.7
X558.35Y-68.05
X560.75Y-17.8
X568.5Y-41.7
X592.1Y-84.2
X594.75Y-26.75
X595.0Y-7.6
X596.4Y-35.825
X596.4Y-64.6
X596.4Y-92.875
X596.4Y-126.875
X596.69Y-148.76
X600.05Y-26.75
X600.05Y-54.625
X600.05Y-84.2
X601.075Y-111.325
T3
X632.025Y-154.25
X632.475Y-132.175
X632.508Y-153.083
X632.508Y-155.417
X632.958Y-131.008
X632.958Y-133.342
X633.675Y-152.6
X633.675Y-155.9
X634.125Y-130.525
X634.125Y-133.825
X634.842Y-153.083
X634.842Y-155.417
X635.292Y-131.008
X635.292Y-133.342
X635.325Y-154.25
X635.775Y-132.175
X643.05Y-127.075
X643.1Y-148.575
X643.533Y-125.908
X643.533Y-128.242
X643.583Y-147.408
X643.583Y-149.742
X644.7Y-125.425
X644.7Y-128.725
X644.75Y-146.925
X644.75Y-150.225
X645.45Y-40.95
X645.45Y-69.675
X645.5Y-52.725
X645.5Y-81.3
X645.5Y-97.775
X645.5Y-109.6
X645.725Y-12.45
X645.725Y-24.15
X645.867Y-125.908
X645.867Y-128.242
X645.917Y-147.408
X645.917Y-149.742
X645.933Y-39.783
X645.933Y-42.117
X645.933Y-68.508
X645.933Y-70.842
X645.983Y-51.558
X645.983Y-53.892
X645.983Y-80.133
X645.983Y-82.467
X645.983Y-96.608
X645.983Y-98.942
X645.983Y-108.433
X645.983Y-110.767
X646.075Y-4.8
X646.087Y-60.3
X646.137Y-31.5
X646.137Y-88.4
X646.208Y-11.283
X646.208Y-13.617
X646.208Y-22.983
X646.208Y-25.317
X646.35Y-127.075
X646.4Y-148.575
X646.558Y-3.633
X646.558Y-5.967
X646.571Y-59.133
X646.571Y-61.467
X646.621Y-30.333
X646.621Y-32.667
X646.621Y-87.233
X646.621Y-89.567
X647.1Y-39.3
X647.1Y-42.6
X647.1Y-68.025
X647.1Y-71.325
X647.15Y-51.075
X647.15Y-54.375
X647.15Y-79.65
X647.15Y-82.95
X647.15Y-96.125
X647.15Y-99.425
X647.15Y-107.95
X647.15Y-111.25
X647.375Y-10.8
X647.375Y-14.1
X647.375Y-22.5
X647.375Y-25.8
X647.725Y-3.15
X647.725Y-6.45
X647.737Y-58.65
X647.737Y-61.95
X647.788Y-29.85
X647.788Y-33.15
X647.788Y-86.75
X647.788Y-90.05
X648.267Y-39.783
X648.267Y-42.117
X648.267Y-68.508
X648.267Y-70.842
X648.317Y-51.558
X648.317Y-53.892
X648.317Y-80.133
X648.317Y-82.467
X648.317Y-96.608
X648.317Y-98.942
X648.317Y-108.433
X648.317Y-110.767
X648.542Y-11.283
X648.542Y-13.617
X648.542Y-22.983
X648.542Y-25.317
X648.75Y-40.95
X648.75Y-69.675
X648.8Y-52.725
X648.8Y-81.3
X648.8Y-97.775
X648.8Y-109.6
X648.892Y-3.633
X648.892Y-5.967
X648.904Y-59.133
X648.904Y-61.467
X648.954Y-30.333
X648.954Y-32.667
X648.954Y-87.233
X648.954Y-89.567
X649.025Y-12.45
X649.025Y-24.15
X649.375Y-4.8
X649.387Y-60.3
X649.438Y-31.5
X649.438Y-88.4
T5
X582.622Y-61.544
X582.622Y-66.544
X602.88Y-152.06
X602.89Y-130.15
X605.42Y-152.06
X605.43Y-130.15
X610.5Y-152.06
X610.51Y-130.15
X613.04Y-152.06
X613.05Y-130.15
X615.58Y-152.06
X615.59Y-130.15
T6
X512.8Y-36.89
X512.8Y-39.43
X512.8Y-42.09
X512.8Y-44.63
X512.98Y-65.08
X512.98Y-67.62
X512.98Y-70.56
X512.98Y-73.1
X522.88Y-54.48
X522.88Y-57.02
X522.88Y-85.52
X522.88Y-88.06
X522.9Y-27.08
X522.9Y-29.62
X558.25Y-51.75
X560.75Y-51.75
X563.25Y-51.75
X565.75Y-51.75
X568.25Y-51.75
X570.75Y-51.75
T7
X515.2Y-110.855
X515.2Y-113.628
X515.2Y-116.4
X515.2Y-119.173
X518.04Y-109.469
X518.04Y-112.242
X518.04Y-115.014
X518.04Y-117.786
X518.04Y-120.559
X550.2Y-102.5
X552.74Y-102.5
X555.28Y-102.5
X557.82Y-102.5
X560.36Y-102.5
X577.3Y-87.0
X577.3Y-89.54
X577.3Y-92.08
X577.3Y-94.62
X577.3Y-97.16
X577.3Y-99.7
X577.3Y-102.24
X577.3Y-104.78
X577.3Y-107.32
X577.3Y-109.86
X577.3Y-112.4
X577.3Y-114.94
X577.3Y-117.48
X577.3Y-120.02
T8
X553.2Y-127.5
X555.7Y-127.5
X558.2Y-127.5
X560.7Y-127.5
X563.2Y-127.5
T9
X605.0Y-7.445
X605.0Y-14.945
X605.0Y-35.7
X605.0Y-43.2
X605.0Y-64.487
X605.0Y-71.987
X605.025Y-92.65
X605.025Y-100.15
X620.0Y-7.445
X620.0Y-14.945
X620.0Y-35.7
X620.0Y-43.2
X620.0Y-64.487
X620.0Y-71.987
X620.025Y-92.65
X620.025Y-100.15
X625.0Y-7.445
X625.0Y-14.945
X625.0Y-35.7
X625.0Y-43.2
X625.0Y-64.487
X625.0Y-71.987
X625.025Y-92.65
X625.025Y-100.15
X630.0Y-7.445
X630.0Y-14.945
X630.0Y-35.7
X630.0Y-43.2
X630.0Y-64.487
X630.0Y-71.987
X630.025Y-92.65
X630.025Y-100.15
T10
X617.96Y-23.4
X617.96Y-25.9
X617.96Y-51.605
X617.96Y-54.105
X617.96Y-80.382
X617.96Y-82.882
X617.985Y-108.655
X617.985Y-111.155
X621.46Y-23.4
X621.46Y-25.9
X621.46Y-51.605
X621.46Y-54.105
X621.46Y-80.382
X621.46Y-82.882
X621.485Y-108.655
X621.485Y-111.155
X626.54Y-23.4
X626.54Y-25.9
X626.54Y-51.605
X626.54Y-54.105
X626.54Y-80.382
X626.54Y-82.882
X626.565Y-108.655
X626.565Y-111.155
X630.04Y-23.4
X630.04Y-25.9
X630.04Y-51.605
X630.04Y-54.105
X630.04Y-80.382
X630.04Y-82.882
X630.065Y-108.655
X630.065Y-111.155
X634.24Y-140.655
X634.24Y-143.155
X634.335Y-118.745
X634.335Y-121.245
X637.74Y-140.655
X637.74Y-143.155
X637.835Y-118.745
X637.835Y-121.245
X642.82Y-140.655
X642.82Y-143.155
X642.915Y-118.745
X642.915Y-121.245
X646.32Y-140.655
X646.32Y-143.155
X646.415Y-118.745
X646.415Y-121.245
T11
X517.8Y-49.4
X517.8Y-59.56
X517.8Y-80.44
X517.8Y-90.6
X517.82Y-22.0
X517.82Y-32.16
T12
X633.675Y-154.25
X634.125Y-132.175
X644.7Y-127.075
X644.75Y-148.575
X647.1Y-40.95
X647.1Y-69.675
X647.15Y-52.725
X647.15Y-81.3
X647.15Y-97.775
X647.15Y-109.6
X647.375Y-12.45
X647.375Y-24.15
X647.725Y-4.8
X647.737Y-60.3
X647.788Y-31.5
X647.788Y-88.4
T13
X516.62Y-102.519
X516.62Y-127.509
T14
X517.4Y-7.5
X520.7Y-12.5
X523.55Y-7.5
T4
G00X513.035Y-143.88
M15
G01X512.235Y-143.88
M16
G05
G00X513.035Y-152.52
M15
G01X512.235Y-152.52
M16
G05
G00X517.365Y-143.88
M15
G01X516.265Y-143.88
M16
G05
G00X517.365Y-152.52
M15
G01X516.265Y-152.52
M16
G05
M30
