%TF.GenerationSoftware,KiCad,Pcbnew,9.0.5*%
%TF.CreationDate,2025-10-23T13:35:12+02:00*%
%TF.ProjectId,AETS-CZ-NB-3L0Y7S3,41455453-2d43-45a2-9d4e-422d334c3059,rev?*%
%TF.SameCoordinates,Original*%
%TF.FileFunction,Legend,Bot*%
%TF.FilePolarity,Positive*%
%FSLAX46Y46*%
G04 Gerber Fmt 4.6, Leading zero omitted, Abs format (unit mm)*
G04 Created by KiCad (PCBNEW 9.0.5) date 2025-10-23 13:35:12*
%MOMM*%
%LPD*%
G01*
G04 APERTURE LIST*
%ADD10C,0.254000*%
%ADD11C,0.150000*%
%ADD12C,0.200000*%
%ADD13C,0.120000*%
G04 APERTURE END LIST*
D10*
X520814318Y-117358048D02*
X520209556Y-116934714D01*
X520814318Y-116632333D02*
X519544318Y-116632333D01*
X519544318Y-116632333D02*
X519544318Y-117116143D01*
X519544318Y-117116143D02*
X519604794Y-117237095D01*
X519604794Y-117237095D02*
X519665270Y-117297572D01*
X519665270Y-117297572D02*
X519786222Y-117358048D01*
X519786222Y-117358048D02*
X519967651Y-117358048D01*
X519967651Y-117358048D02*
X520088603Y-117297572D01*
X520088603Y-117297572D02*
X520149080Y-117237095D01*
X520149080Y-117237095D02*
X520209556Y-117116143D01*
X520209556Y-117116143D02*
X520209556Y-116632333D01*
X519544318Y-117720905D02*
X520814318Y-118144238D01*
X520814318Y-118144238D02*
X519544318Y-118567572D01*
X520814318Y-119656143D02*
X520814318Y-118930428D01*
X520814318Y-119293285D02*
X519544318Y-119293285D01*
X519544318Y-119293285D02*
X519725746Y-119172333D01*
X519725746Y-119172333D02*
X519846699Y-119051381D01*
X519846699Y-119051381D02*
X519907175Y-118930428D01*
X600524318Y-67145356D02*
X599254318Y-67145356D01*
X599254318Y-67145356D02*
X599254318Y-67447737D01*
X599254318Y-67447737D02*
X599314794Y-67629166D01*
X599314794Y-67629166D02*
X599435746Y-67750118D01*
X599435746Y-67750118D02*
X599556699Y-67810595D01*
X599556699Y-67810595D02*
X599798603Y-67871071D01*
X599798603Y-67871071D02*
X599980032Y-67871071D01*
X599980032Y-67871071D02*
X600221937Y-67810595D01*
X600221937Y-67810595D02*
X600342889Y-67750118D01*
X600342889Y-67750118D02*
X600463842Y-67629166D01*
X600463842Y-67629166D02*
X600524318Y-67447737D01*
X600524318Y-67447737D02*
X600524318Y-67145356D01*
X600524318Y-69080595D02*
X600524318Y-68354880D01*
X600524318Y-68717737D02*
X599254318Y-68717737D01*
X599254318Y-68717737D02*
X599435746Y-68596785D01*
X599435746Y-68596785D02*
X599556699Y-68475833D01*
X599556699Y-68475833D02*
X599617175Y-68354880D01*
X600524318Y-70290119D02*
X600524318Y-69564404D01*
X600524318Y-69927261D02*
X599254318Y-69927261D01*
X599254318Y-69927261D02*
X599435746Y-69806309D01*
X599435746Y-69806309D02*
X599556699Y-69685357D01*
X599556699Y-69685357D02*
X599617175Y-69564404D01*
D11*
X562279819Y-105432142D02*
X561803628Y-105098809D01*
X562279819Y-104860714D02*
X561279819Y-104860714D01*
X561279819Y-104860714D02*
X561279819Y-105241666D01*
X561279819Y-105241666D02*
X561327438Y-105336904D01*
X561327438Y-105336904D02*
X561375057Y-105384523D01*
X561375057Y-105384523D02*
X561470295Y-105432142D01*
X561470295Y-105432142D02*
X561613152Y-105432142D01*
X561613152Y-105432142D02*
X561708390Y-105384523D01*
X561708390Y-105384523D02*
X561756009Y-105336904D01*
X561756009Y-105336904D02*
X561803628Y-105241666D01*
X561803628Y-105241666D02*
X561803628Y-104860714D01*
X561279819Y-106336904D02*
X561279819Y-105860714D01*
X561279819Y-105860714D02*
X561756009Y-105813095D01*
X561756009Y-105813095D02*
X561708390Y-105860714D01*
X561708390Y-105860714D02*
X561660771Y-105955952D01*
X561660771Y-105955952D02*
X561660771Y-106194047D01*
X561660771Y-106194047D02*
X561708390Y-106289285D01*
X561708390Y-106289285D02*
X561756009Y-106336904D01*
X561756009Y-106336904D02*
X561851247Y-106384523D01*
X561851247Y-106384523D02*
X562089342Y-106384523D01*
X562089342Y-106384523D02*
X562184580Y-106336904D01*
X562184580Y-106336904D02*
X562232200Y-106289285D01*
X562232200Y-106289285D02*
X562279819Y-106194047D01*
X562279819Y-106194047D02*
X562279819Y-105955952D01*
X562279819Y-105955952D02*
X562232200Y-105860714D01*
X562232200Y-105860714D02*
X562184580Y-105813095D01*
X561375057Y-106765476D02*
X561327438Y-106813095D01*
X561327438Y-106813095D02*
X561279819Y-106908333D01*
X561279819Y-106908333D02*
X561279819Y-107146428D01*
X561279819Y-107146428D02*
X561327438Y-107241666D01*
X561327438Y-107241666D02*
X561375057Y-107289285D01*
X561375057Y-107289285D02*
X561470295Y-107336904D01*
X561470295Y-107336904D02*
X561565533Y-107336904D01*
X561565533Y-107336904D02*
X561708390Y-107289285D01*
X561708390Y-107289285D02*
X562279819Y-106717857D01*
X562279819Y-106717857D02*
X562279819Y-107336904D01*
X515792857Y-25859580D02*
X515840476Y-25907200D01*
X515840476Y-25907200D02*
X515983333Y-25954819D01*
X515983333Y-25954819D02*
X516078571Y-25954819D01*
X516078571Y-25954819D02*
X516221428Y-25907200D01*
X516221428Y-25907200D02*
X516316666Y-25811961D01*
X516316666Y-25811961D02*
X516364285Y-25716723D01*
X516364285Y-25716723D02*
X516411904Y-25526247D01*
X516411904Y-25526247D02*
X516411904Y-25383390D01*
X516411904Y-25383390D02*
X516364285Y-25192914D01*
X516364285Y-25192914D02*
X516316666Y-25097676D01*
X516316666Y-25097676D02*
X516221428Y-25002438D01*
X516221428Y-25002438D02*
X516078571Y-24954819D01*
X516078571Y-24954819D02*
X515983333Y-24954819D01*
X515983333Y-24954819D02*
X515840476Y-25002438D01*
X515840476Y-25002438D02*
X515792857Y-25050057D01*
X515411904Y-25050057D02*
X515364285Y-25002438D01*
X515364285Y-25002438D02*
X515269047Y-24954819D01*
X515269047Y-24954819D02*
X515030952Y-24954819D01*
X515030952Y-24954819D02*
X514935714Y-25002438D01*
X514935714Y-25002438D02*
X514888095Y-25050057D01*
X514888095Y-25050057D02*
X514840476Y-25145295D01*
X514840476Y-25145295D02*
X514840476Y-25240533D01*
X514840476Y-25240533D02*
X514888095Y-25383390D01*
X514888095Y-25383390D02*
X515459523Y-25954819D01*
X515459523Y-25954819D02*
X514840476Y-25954819D01*
X514364285Y-25954819D02*
X514173809Y-25954819D01*
X514173809Y-25954819D02*
X514078571Y-25907200D01*
X514078571Y-25907200D02*
X514030952Y-25859580D01*
X514030952Y-25859580D02*
X513935714Y-25716723D01*
X513935714Y-25716723D02*
X513888095Y-25526247D01*
X513888095Y-25526247D02*
X513888095Y-25145295D01*
X513888095Y-25145295D02*
X513935714Y-25050057D01*
X513935714Y-25050057D02*
X513983333Y-25002438D01*
X513983333Y-25002438D02*
X514078571Y-24954819D01*
X514078571Y-24954819D02*
X514269047Y-24954819D01*
X514269047Y-24954819D02*
X514364285Y-25002438D01*
X514364285Y-25002438D02*
X514411904Y-25050057D01*
X514411904Y-25050057D02*
X514459523Y-25145295D01*
X514459523Y-25145295D02*
X514459523Y-25383390D01*
X514459523Y-25383390D02*
X514411904Y-25478628D01*
X514411904Y-25478628D02*
X514364285Y-25526247D01*
X514364285Y-25526247D02*
X514269047Y-25573866D01*
X514269047Y-25573866D02*
X514078571Y-25573866D01*
X514078571Y-25573866D02*
X513983333Y-25526247D01*
X513983333Y-25526247D02*
X513935714Y-25478628D01*
X513935714Y-25478628D02*
X513888095Y-25383390D01*
X516192857Y-28854819D02*
X516526190Y-28378628D01*
X516764285Y-28854819D02*
X516764285Y-27854819D01*
X516764285Y-27854819D02*
X516383333Y-27854819D01*
X516383333Y-27854819D02*
X516288095Y-27902438D01*
X516288095Y-27902438D02*
X516240476Y-27950057D01*
X516240476Y-27950057D02*
X516192857Y-28045295D01*
X516192857Y-28045295D02*
X516192857Y-28188152D01*
X516192857Y-28188152D02*
X516240476Y-28283390D01*
X516240476Y-28283390D02*
X516288095Y-28331009D01*
X516288095Y-28331009D02*
X516383333Y-28378628D01*
X516383333Y-28378628D02*
X516764285Y-28378628D01*
X515240476Y-28854819D02*
X515811904Y-28854819D01*
X515526190Y-28854819D02*
X515526190Y-27854819D01*
X515526190Y-27854819D02*
X515621428Y-27997676D01*
X515621428Y-27997676D02*
X515716666Y-28092914D01*
X515716666Y-28092914D02*
X515811904Y-28140533D01*
X514859523Y-27950057D02*
X514811904Y-27902438D01*
X514811904Y-27902438D02*
X514716666Y-27854819D01*
X514716666Y-27854819D02*
X514478571Y-27854819D01*
X514478571Y-27854819D02*
X514383333Y-27902438D01*
X514383333Y-27902438D02*
X514335714Y-27950057D01*
X514335714Y-27950057D02*
X514288095Y-28045295D01*
X514288095Y-28045295D02*
X514288095Y-28140533D01*
X514288095Y-28140533D02*
X514335714Y-28283390D01*
X514335714Y-28283390D02*
X514907142Y-28854819D01*
X514907142Y-28854819D02*
X514288095Y-28854819D01*
D10*
X600249318Y-10132856D02*
X598979318Y-10132856D01*
X598979318Y-10132856D02*
X598979318Y-10435237D01*
X598979318Y-10435237D02*
X599039794Y-10616666D01*
X599039794Y-10616666D02*
X599160746Y-10737618D01*
X599160746Y-10737618D02*
X599281699Y-10798095D01*
X599281699Y-10798095D02*
X599523603Y-10858571D01*
X599523603Y-10858571D02*
X599705032Y-10858571D01*
X599705032Y-10858571D02*
X599946937Y-10798095D01*
X599946937Y-10798095D02*
X600067889Y-10737618D01*
X600067889Y-10737618D02*
X600188842Y-10616666D01*
X600188842Y-10616666D02*
X600249318Y-10435237D01*
X600249318Y-10435237D02*
X600249318Y-10132856D01*
X600249318Y-12068095D02*
X600249318Y-11342380D01*
X600249318Y-11705237D02*
X598979318Y-11705237D01*
X598979318Y-11705237D02*
X599160746Y-11584285D01*
X599160746Y-11584285D02*
X599281699Y-11463333D01*
X599281699Y-11463333D02*
X599342175Y-11342380D01*
X599100270Y-12551904D02*
X599039794Y-12612380D01*
X599039794Y-12612380D02*
X598979318Y-12733333D01*
X598979318Y-12733333D02*
X598979318Y-13035714D01*
X598979318Y-13035714D02*
X599039794Y-13156666D01*
X599039794Y-13156666D02*
X599100270Y-13217142D01*
X599100270Y-13217142D02*
X599221222Y-13277619D01*
X599221222Y-13277619D02*
X599342175Y-13277619D01*
X599342175Y-13277619D02*
X599523603Y-13217142D01*
X599523603Y-13217142D02*
X600249318Y-12491428D01*
X600249318Y-12491428D02*
X600249318Y-13277619D01*
X600499318Y-95382856D02*
X599229318Y-95382856D01*
X599229318Y-95382856D02*
X599229318Y-95685237D01*
X599229318Y-95685237D02*
X599289794Y-95866666D01*
X599289794Y-95866666D02*
X599410746Y-95987618D01*
X599410746Y-95987618D02*
X599531699Y-96048095D01*
X599531699Y-96048095D02*
X599773603Y-96108571D01*
X599773603Y-96108571D02*
X599955032Y-96108571D01*
X599955032Y-96108571D02*
X600196937Y-96048095D01*
X600196937Y-96048095D02*
X600317889Y-95987618D01*
X600317889Y-95987618D02*
X600438842Y-95866666D01*
X600438842Y-95866666D02*
X600499318Y-95685237D01*
X600499318Y-95685237D02*
X600499318Y-95382856D01*
X600499318Y-97318095D02*
X600499318Y-96592380D01*
X600499318Y-96955237D02*
X599229318Y-96955237D01*
X599229318Y-96955237D02*
X599410746Y-96834285D01*
X599410746Y-96834285D02*
X599531699Y-96713333D01*
X599531699Y-96713333D02*
X599592175Y-96592380D01*
X599652651Y-98406666D02*
X600499318Y-98406666D01*
X599168842Y-98104285D02*
X600075984Y-97801904D01*
X600075984Y-97801904D02*
X600075984Y-98588095D01*
D11*
X611559580Y-154582142D02*
X611607200Y-154534523D01*
X611607200Y-154534523D02*
X611654819Y-154391666D01*
X611654819Y-154391666D02*
X611654819Y-154296428D01*
X611654819Y-154296428D02*
X611607200Y-154153571D01*
X611607200Y-154153571D02*
X611511961Y-154058333D01*
X611511961Y-154058333D02*
X611416723Y-154010714D01*
X611416723Y-154010714D02*
X611226247Y-153963095D01*
X611226247Y-153963095D02*
X611083390Y-153963095D01*
X611083390Y-153963095D02*
X610892914Y-154010714D01*
X610892914Y-154010714D02*
X610797676Y-154058333D01*
X610797676Y-154058333D02*
X610702438Y-154153571D01*
X610702438Y-154153571D02*
X610654819Y-154296428D01*
X610654819Y-154296428D02*
X610654819Y-154391666D01*
X610654819Y-154391666D02*
X610702438Y-154534523D01*
X610702438Y-154534523D02*
X610750057Y-154582142D01*
X610654819Y-154915476D02*
X610654819Y-155534523D01*
X610654819Y-155534523D02*
X611035771Y-155201190D01*
X611035771Y-155201190D02*
X611035771Y-155344047D01*
X611035771Y-155344047D02*
X611083390Y-155439285D01*
X611083390Y-155439285D02*
X611131009Y-155486904D01*
X611131009Y-155486904D02*
X611226247Y-155534523D01*
X611226247Y-155534523D02*
X611464342Y-155534523D01*
X611464342Y-155534523D02*
X611559580Y-155486904D01*
X611559580Y-155486904D02*
X611607200Y-155439285D01*
X611607200Y-155439285D02*
X611654819Y-155344047D01*
X611654819Y-155344047D02*
X611654819Y-155058333D01*
X611654819Y-155058333D02*
X611607200Y-154963095D01*
X611607200Y-154963095D02*
X611559580Y-154915476D01*
X611083390Y-156105952D02*
X611035771Y-156010714D01*
X611035771Y-156010714D02*
X610988152Y-155963095D01*
X610988152Y-155963095D02*
X610892914Y-155915476D01*
X610892914Y-155915476D02*
X610845295Y-155915476D01*
X610845295Y-155915476D02*
X610750057Y-155963095D01*
X610750057Y-155963095D02*
X610702438Y-156010714D01*
X610702438Y-156010714D02*
X610654819Y-156105952D01*
X610654819Y-156105952D02*
X610654819Y-156296428D01*
X610654819Y-156296428D02*
X610702438Y-156391666D01*
X610702438Y-156391666D02*
X610750057Y-156439285D01*
X610750057Y-156439285D02*
X610845295Y-156486904D01*
X610845295Y-156486904D02*
X610892914Y-156486904D01*
X610892914Y-156486904D02*
X610988152Y-156439285D01*
X610988152Y-156439285D02*
X611035771Y-156391666D01*
X611035771Y-156391666D02*
X611083390Y-156296428D01*
X611083390Y-156296428D02*
X611083390Y-156105952D01*
X611083390Y-156105952D02*
X611131009Y-156010714D01*
X611131009Y-156010714D02*
X611178628Y-155963095D01*
X611178628Y-155963095D02*
X611273866Y-155915476D01*
X611273866Y-155915476D02*
X611464342Y-155915476D01*
X611464342Y-155915476D02*
X611559580Y-155963095D01*
X611559580Y-155963095D02*
X611607200Y-156010714D01*
X611607200Y-156010714D02*
X611654819Y-156105952D01*
X611654819Y-156105952D02*
X611654819Y-156296428D01*
X611654819Y-156296428D02*
X611607200Y-156391666D01*
X611607200Y-156391666D02*
X611559580Y-156439285D01*
X611559580Y-156439285D02*
X611464342Y-156486904D01*
X611464342Y-156486904D02*
X611273866Y-156486904D01*
X611273866Y-156486904D02*
X611178628Y-156439285D01*
X611178628Y-156439285D02*
X611131009Y-156391666D01*
X611131009Y-156391666D02*
X611083390Y-156296428D01*
D10*
X520914318Y-107158048D02*
X520309556Y-106734714D01*
X520914318Y-106432333D02*
X519644318Y-106432333D01*
X519644318Y-106432333D02*
X519644318Y-106916143D01*
X519644318Y-106916143D02*
X519704794Y-107037095D01*
X519704794Y-107037095D02*
X519765270Y-107097572D01*
X519765270Y-107097572D02*
X519886222Y-107158048D01*
X519886222Y-107158048D02*
X520067651Y-107158048D01*
X520067651Y-107158048D02*
X520188603Y-107097572D01*
X520188603Y-107097572D02*
X520249080Y-107037095D01*
X520249080Y-107037095D02*
X520309556Y-106916143D01*
X520309556Y-106916143D02*
X520309556Y-106432333D01*
X519644318Y-107520905D02*
X520914318Y-107944238D01*
X520914318Y-107944238D02*
X519644318Y-108367572D01*
X519765270Y-108730428D02*
X519704794Y-108790904D01*
X519704794Y-108790904D02*
X519644318Y-108911857D01*
X519644318Y-108911857D02*
X519644318Y-109214238D01*
X519644318Y-109214238D02*
X519704794Y-109335190D01*
X519704794Y-109335190D02*
X519765270Y-109395666D01*
X519765270Y-109395666D02*
X519886222Y-109456143D01*
X519886222Y-109456143D02*
X520007175Y-109456143D01*
X520007175Y-109456143D02*
X520188603Y-109395666D01*
X520188603Y-109395666D02*
X520914318Y-108669952D01*
X520914318Y-108669952D02*
X520914318Y-109456143D01*
D11*
X602384580Y-30632142D02*
X602432200Y-30584523D01*
X602432200Y-30584523D02*
X602479819Y-30441666D01*
X602479819Y-30441666D02*
X602479819Y-30346428D01*
X602479819Y-30346428D02*
X602432200Y-30203571D01*
X602432200Y-30203571D02*
X602336961Y-30108333D01*
X602336961Y-30108333D02*
X602241723Y-30060714D01*
X602241723Y-30060714D02*
X602051247Y-30013095D01*
X602051247Y-30013095D02*
X601908390Y-30013095D01*
X601908390Y-30013095D02*
X601717914Y-30060714D01*
X601717914Y-30060714D02*
X601622676Y-30108333D01*
X601622676Y-30108333D02*
X601527438Y-30203571D01*
X601527438Y-30203571D02*
X601479819Y-30346428D01*
X601479819Y-30346428D02*
X601479819Y-30441666D01*
X601479819Y-30441666D02*
X601527438Y-30584523D01*
X601527438Y-30584523D02*
X601575057Y-30632142D01*
X601479819Y-31536904D02*
X601479819Y-31060714D01*
X601479819Y-31060714D02*
X601956009Y-31013095D01*
X601956009Y-31013095D02*
X601908390Y-31060714D01*
X601908390Y-31060714D02*
X601860771Y-31155952D01*
X601860771Y-31155952D02*
X601860771Y-31394047D01*
X601860771Y-31394047D02*
X601908390Y-31489285D01*
X601908390Y-31489285D02*
X601956009Y-31536904D01*
X601956009Y-31536904D02*
X602051247Y-31584523D01*
X602051247Y-31584523D02*
X602289342Y-31584523D01*
X602289342Y-31584523D02*
X602384580Y-31536904D01*
X602384580Y-31536904D02*
X602432200Y-31489285D01*
X602432200Y-31489285D02*
X602479819Y-31394047D01*
X602479819Y-31394047D02*
X602479819Y-31155952D01*
X602479819Y-31155952D02*
X602432200Y-31060714D01*
X602432200Y-31060714D02*
X602384580Y-31013095D01*
X601479819Y-31917857D02*
X601479819Y-32536904D01*
X601479819Y-32536904D02*
X601860771Y-32203571D01*
X601860771Y-32203571D02*
X601860771Y-32346428D01*
X601860771Y-32346428D02*
X601908390Y-32441666D01*
X601908390Y-32441666D02*
X601956009Y-32489285D01*
X601956009Y-32489285D02*
X602051247Y-32536904D01*
X602051247Y-32536904D02*
X602289342Y-32536904D01*
X602289342Y-32536904D02*
X602384580Y-32489285D01*
X602384580Y-32489285D02*
X602432200Y-32441666D01*
X602432200Y-32441666D02*
X602479819Y-32346428D01*
X602479819Y-32346428D02*
X602479819Y-32060714D01*
X602479819Y-32060714D02*
X602432200Y-31965476D01*
X602432200Y-31965476D02*
X602384580Y-31917857D01*
X516197857Y-87274819D02*
X516531190Y-86798628D01*
X516769285Y-87274819D02*
X516769285Y-86274819D01*
X516769285Y-86274819D02*
X516388333Y-86274819D01*
X516388333Y-86274819D02*
X516293095Y-86322438D01*
X516293095Y-86322438D02*
X516245476Y-86370057D01*
X516245476Y-86370057D02*
X516197857Y-86465295D01*
X516197857Y-86465295D02*
X516197857Y-86608152D01*
X516197857Y-86608152D02*
X516245476Y-86703390D01*
X516245476Y-86703390D02*
X516293095Y-86751009D01*
X516293095Y-86751009D02*
X516388333Y-86798628D01*
X516388333Y-86798628D02*
X516769285Y-86798628D01*
X515340714Y-86274819D02*
X515531190Y-86274819D01*
X515531190Y-86274819D02*
X515626428Y-86322438D01*
X515626428Y-86322438D02*
X515674047Y-86370057D01*
X515674047Y-86370057D02*
X515769285Y-86512914D01*
X515769285Y-86512914D02*
X515816904Y-86703390D01*
X515816904Y-86703390D02*
X515816904Y-87084342D01*
X515816904Y-87084342D02*
X515769285Y-87179580D01*
X515769285Y-87179580D02*
X515721666Y-87227200D01*
X515721666Y-87227200D02*
X515626428Y-87274819D01*
X515626428Y-87274819D02*
X515435952Y-87274819D01*
X515435952Y-87274819D02*
X515340714Y-87227200D01*
X515340714Y-87227200D02*
X515293095Y-87179580D01*
X515293095Y-87179580D02*
X515245476Y-87084342D01*
X515245476Y-87084342D02*
X515245476Y-86846247D01*
X515245476Y-86846247D02*
X515293095Y-86751009D01*
X515293095Y-86751009D02*
X515340714Y-86703390D01*
X515340714Y-86703390D02*
X515435952Y-86655771D01*
X515435952Y-86655771D02*
X515626428Y-86655771D01*
X515626428Y-86655771D02*
X515721666Y-86703390D01*
X515721666Y-86703390D02*
X515769285Y-86751009D01*
X515769285Y-86751009D02*
X515816904Y-86846247D01*
X514293095Y-87274819D02*
X514864523Y-87274819D01*
X514578809Y-87274819D02*
X514578809Y-86274819D01*
X514578809Y-86274819D02*
X514674047Y-86417676D01*
X514674047Y-86417676D02*
X514769285Y-86512914D01*
X514769285Y-86512914D02*
X514864523Y-86560533D01*
X560517857Y-80659580D02*
X560565476Y-80707200D01*
X560565476Y-80707200D02*
X560708333Y-80754819D01*
X560708333Y-80754819D02*
X560803571Y-80754819D01*
X560803571Y-80754819D02*
X560946428Y-80707200D01*
X560946428Y-80707200D02*
X561041666Y-80611961D01*
X561041666Y-80611961D02*
X561089285Y-80516723D01*
X561089285Y-80516723D02*
X561136904Y-80326247D01*
X561136904Y-80326247D02*
X561136904Y-80183390D01*
X561136904Y-80183390D02*
X561089285Y-79992914D01*
X561089285Y-79992914D02*
X561041666Y-79897676D01*
X561041666Y-79897676D02*
X560946428Y-79802438D01*
X560946428Y-79802438D02*
X560803571Y-79754819D01*
X560803571Y-79754819D02*
X560708333Y-79754819D01*
X560708333Y-79754819D02*
X560565476Y-79802438D01*
X560565476Y-79802438D02*
X560517857Y-79850057D01*
X559565476Y-80754819D02*
X560136904Y-80754819D01*
X559851190Y-80754819D02*
X559851190Y-79754819D01*
X559851190Y-79754819D02*
X559946428Y-79897676D01*
X559946428Y-79897676D02*
X560041666Y-79992914D01*
X560041666Y-79992914D02*
X560136904Y-80040533D01*
X558660714Y-79754819D02*
X559136904Y-79754819D01*
X559136904Y-79754819D02*
X559184523Y-80231009D01*
X559184523Y-80231009D02*
X559136904Y-80183390D01*
X559136904Y-80183390D02*
X559041666Y-80135771D01*
X559041666Y-80135771D02*
X558803571Y-80135771D01*
X558803571Y-80135771D02*
X558708333Y-80183390D01*
X558708333Y-80183390D02*
X558660714Y-80231009D01*
X558660714Y-80231009D02*
X558613095Y-80326247D01*
X558613095Y-80326247D02*
X558613095Y-80564342D01*
X558613095Y-80564342D02*
X558660714Y-80659580D01*
X558660714Y-80659580D02*
X558708333Y-80707200D01*
X558708333Y-80707200D02*
X558803571Y-80754819D01*
X558803571Y-80754819D02*
X559041666Y-80754819D01*
X559041666Y-80754819D02*
X559136904Y-80707200D01*
X559136904Y-80707200D02*
X559184523Y-80659580D01*
X562592857Y-79279819D02*
X562926190Y-78803628D01*
X563164285Y-79279819D02*
X563164285Y-78279819D01*
X563164285Y-78279819D02*
X562783333Y-78279819D01*
X562783333Y-78279819D02*
X562688095Y-78327438D01*
X562688095Y-78327438D02*
X562640476Y-78375057D01*
X562640476Y-78375057D02*
X562592857Y-78470295D01*
X562592857Y-78470295D02*
X562592857Y-78613152D01*
X562592857Y-78613152D02*
X562640476Y-78708390D01*
X562640476Y-78708390D02*
X562688095Y-78756009D01*
X562688095Y-78756009D02*
X562783333Y-78803628D01*
X562783333Y-78803628D02*
X563164285Y-78803628D01*
X561640476Y-79279819D02*
X562211904Y-79279819D01*
X561926190Y-79279819D02*
X561926190Y-78279819D01*
X561926190Y-78279819D02*
X562021428Y-78422676D01*
X562021428Y-78422676D02*
X562116666Y-78517914D01*
X562116666Y-78517914D02*
X562211904Y-78565533D01*
X561021428Y-78279819D02*
X560926190Y-78279819D01*
X560926190Y-78279819D02*
X560830952Y-78327438D01*
X560830952Y-78327438D02*
X560783333Y-78375057D01*
X560783333Y-78375057D02*
X560735714Y-78470295D01*
X560735714Y-78470295D02*
X560688095Y-78660771D01*
X560688095Y-78660771D02*
X560688095Y-78898866D01*
X560688095Y-78898866D02*
X560735714Y-79089342D01*
X560735714Y-79089342D02*
X560783333Y-79184580D01*
X560783333Y-79184580D02*
X560830952Y-79232200D01*
X560830952Y-79232200D02*
X560926190Y-79279819D01*
X560926190Y-79279819D02*
X561021428Y-79279819D01*
X561021428Y-79279819D02*
X561116666Y-79232200D01*
X561116666Y-79232200D02*
X561164285Y-79184580D01*
X561164285Y-79184580D02*
X561211904Y-79089342D01*
X561211904Y-79089342D02*
X561259523Y-78898866D01*
X561259523Y-78898866D02*
X561259523Y-78660771D01*
X561259523Y-78660771D02*
X561211904Y-78470295D01*
X561211904Y-78470295D02*
X561164285Y-78375057D01*
X561164285Y-78375057D02*
X561116666Y-78327438D01*
X561116666Y-78327438D02*
X561021428Y-78279819D01*
X526704666Y-117257319D02*
X527037999Y-116781128D01*
X527276094Y-117257319D02*
X527276094Y-116257319D01*
X527276094Y-116257319D02*
X526895142Y-116257319D01*
X526895142Y-116257319D02*
X526799904Y-116304938D01*
X526799904Y-116304938D02*
X526752285Y-116352557D01*
X526752285Y-116352557D02*
X526704666Y-116447795D01*
X526704666Y-116447795D02*
X526704666Y-116590652D01*
X526704666Y-116590652D02*
X526752285Y-116685890D01*
X526752285Y-116685890D02*
X526799904Y-116733509D01*
X526799904Y-116733509D02*
X526895142Y-116781128D01*
X526895142Y-116781128D02*
X527276094Y-116781128D01*
X526371332Y-116257319D02*
X525752285Y-116257319D01*
X525752285Y-116257319D02*
X526085618Y-116638271D01*
X526085618Y-116638271D02*
X525942761Y-116638271D01*
X525942761Y-116638271D02*
X525847523Y-116685890D01*
X525847523Y-116685890D02*
X525799904Y-116733509D01*
X525799904Y-116733509D02*
X525752285Y-116828747D01*
X525752285Y-116828747D02*
X525752285Y-117066842D01*
X525752285Y-117066842D02*
X525799904Y-117162080D01*
X525799904Y-117162080D02*
X525847523Y-117209700D01*
X525847523Y-117209700D02*
X525942761Y-117257319D01*
X525942761Y-117257319D02*
X526228475Y-117257319D01*
X526228475Y-117257319D02*
X526323713Y-117209700D01*
X526323713Y-117209700D02*
X526371332Y-117162080D01*
X526704666Y-109457319D02*
X527037999Y-108981128D01*
X527276094Y-109457319D02*
X527276094Y-108457319D01*
X527276094Y-108457319D02*
X526895142Y-108457319D01*
X526895142Y-108457319D02*
X526799904Y-108504938D01*
X526799904Y-108504938D02*
X526752285Y-108552557D01*
X526752285Y-108552557D02*
X526704666Y-108647795D01*
X526704666Y-108647795D02*
X526704666Y-108790652D01*
X526704666Y-108790652D02*
X526752285Y-108885890D01*
X526752285Y-108885890D02*
X526799904Y-108933509D01*
X526799904Y-108933509D02*
X526895142Y-108981128D01*
X526895142Y-108981128D02*
X527276094Y-108981128D01*
X525847523Y-108790652D02*
X525847523Y-109457319D01*
X526085618Y-108409700D02*
X526323713Y-109123985D01*
X526323713Y-109123985D02*
X525704666Y-109123985D01*
D10*
X600324318Y-38332856D02*
X599054318Y-38332856D01*
X599054318Y-38332856D02*
X599054318Y-38635237D01*
X599054318Y-38635237D02*
X599114794Y-38816666D01*
X599114794Y-38816666D02*
X599235746Y-38937618D01*
X599235746Y-38937618D02*
X599356699Y-38998095D01*
X599356699Y-38998095D02*
X599598603Y-39058571D01*
X599598603Y-39058571D02*
X599780032Y-39058571D01*
X599780032Y-39058571D02*
X600021937Y-38998095D01*
X600021937Y-38998095D02*
X600142889Y-38937618D01*
X600142889Y-38937618D02*
X600263842Y-38816666D01*
X600263842Y-38816666D02*
X600324318Y-38635237D01*
X600324318Y-38635237D02*
X600324318Y-38332856D01*
X600324318Y-40268095D02*
X600324318Y-39542380D01*
X600324318Y-39905237D02*
X599054318Y-39905237D01*
X599054318Y-39905237D02*
X599235746Y-39784285D01*
X599235746Y-39784285D02*
X599356699Y-39663333D01*
X599356699Y-39663333D02*
X599417175Y-39542380D01*
X599054318Y-40691428D02*
X599054318Y-41477619D01*
X599054318Y-41477619D02*
X599538127Y-41054285D01*
X599538127Y-41054285D02*
X599538127Y-41235714D01*
X599538127Y-41235714D02*
X599598603Y-41356666D01*
X599598603Y-41356666D02*
X599659080Y-41417142D01*
X599659080Y-41417142D02*
X599780032Y-41477619D01*
X599780032Y-41477619D02*
X600082413Y-41477619D01*
X600082413Y-41477619D02*
X600203365Y-41417142D01*
X600203365Y-41417142D02*
X600263842Y-41356666D01*
X600263842Y-41356666D02*
X600324318Y-41235714D01*
X600324318Y-41235714D02*
X600324318Y-40872857D01*
X600324318Y-40872857D02*
X600263842Y-40751904D01*
X600263842Y-40751904D02*
X600203365Y-40691428D01*
D11*
X516372857Y-84679580D02*
X516420476Y-84727200D01*
X516420476Y-84727200D02*
X516563333Y-84774819D01*
X516563333Y-84774819D02*
X516658571Y-84774819D01*
X516658571Y-84774819D02*
X516801428Y-84727200D01*
X516801428Y-84727200D02*
X516896666Y-84631961D01*
X516896666Y-84631961D02*
X516944285Y-84536723D01*
X516944285Y-84536723D02*
X516991904Y-84346247D01*
X516991904Y-84346247D02*
X516991904Y-84203390D01*
X516991904Y-84203390D02*
X516944285Y-84012914D01*
X516944285Y-84012914D02*
X516896666Y-83917676D01*
X516896666Y-83917676D02*
X516801428Y-83822438D01*
X516801428Y-83822438D02*
X516658571Y-83774819D01*
X516658571Y-83774819D02*
X516563333Y-83774819D01*
X516563333Y-83774819D02*
X516420476Y-83822438D01*
X516420476Y-83822438D02*
X516372857Y-83870057D01*
X515515714Y-83774819D02*
X515706190Y-83774819D01*
X515706190Y-83774819D02*
X515801428Y-83822438D01*
X515801428Y-83822438D02*
X515849047Y-83870057D01*
X515849047Y-83870057D02*
X515944285Y-84012914D01*
X515944285Y-84012914D02*
X515991904Y-84203390D01*
X515991904Y-84203390D02*
X515991904Y-84584342D01*
X515991904Y-84584342D02*
X515944285Y-84679580D01*
X515944285Y-84679580D02*
X515896666Y-84727200D01*
X515896666Y-84727200D02*
X515801428Y-84774819D01*
X515801428Y-84774819D02*
X515610952Y-84774819D01*
X515610952Y-84774819D02*
X515515714Y-84727200D01*
X515515714Y-84727200D02*
X515468095Y-84679580D01*
X515468095Y-84679580D02*
X515420476Y-84584342D01*
X515420476Y-84584342D02*
X515420476Y-84346247D01*
X515420476Y-84346247D02*
X515468095Y-84251009D01*
X515468095Y-84251009D02*
X515515714Y-84203390D01*
X515515714Y-84203390D02*
X515610952Y-84155771D01*
X515610952Y-84155771D02*
X515801428Y-84155771D01*
X515801428Y-84155771D02*
X515896666Y-84203390D01*
X515896666Y-84203390D02*
X515944285Y-84251009D01*
X515944285Y-84251009D02*
X515991904Y-84346247D01*
X514849047Y-84203390D02*
X514944285Y-84155771D01*
X514944285Y-84155771D02*
X514991904Y-84108152D01*
X514991904Y-84108152D02*
X515039523Y-84012914D01*
X515039523Y-84012914D02*
X515039523Y-83965295D01*
X515039523Y-83965295D02*
X514991904Y-83870057D01*
X514991904Y-83870057D02*
X514944285Y-83822438D01*
X514944285Y-83822438D02*
X514849047Y-83774819D01*
X514849047Y-83774819D02*
X514658571Y-83774819D01*
X514658571Y-83774819D02*
X514563333Y-83822438D01*
X514563333Y-83822438D02*
X514515714Y-83870057D01*
X514515714Y-83870057D02*
X514468095Y-83965295D01*
X514468095Y-83965295D02*
X514468095Y-84012914D01*
X514468095Y-84012914D02*
X514515714Y-84108152D01*
X514515714Y-84108152D02*
X514563333Y-84155771D01*
X514563333Y-84155771D02*
X514658571Y-84203390D01*
X514658571Y-84203390D02*
X514849047Y-84203390D01*
X514849047Y-84203390D02*
X514944285Y-84251009D01*
X514944285Y-84251009D02*
X514991904Y-84298628D01*
X514991904Y-84298628D02*
X515039523Y-84393866D01*
X515039523Y-84393866D02*
X515039523Y-84584342D01*
X515039523Y-84584342D02*
X514991904Y-84679580D01*
X514991904Y-84679580D02*
X514944285Y-84727200D01*
X514944285Y-84727200D02*
X514849047Y-84774819D01*
X514849047Y-84774819D02*
X514658571Y-84774819D01*
X514658571Y-84774819D02*
X514563333Y-84727200D01*
X514563333Y-84727200D02*
X514515714Y-84679580D01*
X514515714Y-84679580D02*
X514468095Y-84584342D01*
X514468095Y-84584342D02*
X514468095Y-84393866D01*
X514468095Y-84393866D02*
X514515714Y-84298628D01*
X514515714Y-84298628D02*
X514563333Y-84251009D01*
X514563333Y-84251009D02*
X514658571Y-84203390D01*
X522999580Y-107747333D02*
X523047200Y-107699714D01*
X523047200Y-107699714D02*
X523094819Y-107556857D01*
X523094819Y-107556857D02*
X523094819Y-107461619D01*
X523094819Y-107461619D02*
X523047200Y-107318762D01*
X523047200Y-107318762D02*
X522951961Y-107223524D01*
X522951961Y-107223524D02*
X522856723Y-107175905D01*
X522856723Y-107175905D02*
X522666247Y-107128286D01*
X522666247Y-107128286D02*
X522523390Y-107128286D01*
X522523390Y-107128286D02*
X522332914Y-107175905D01*
X522332914Y-107175905D02*
X522237676Y-107223524D01*
X522237676Y-107223524D02*
X522142438Y-107318762D01*
X522142438Y-107318762D02*
X522094819Y-107461619D01*
X522094819Y-107461619D02*
X522094819Y-107556857D01*
X522094819Y-107556857D02*
X522142438Y-107699714D01*
X522142438Y-107699714D02*
X522190057Y-107747333D01*
X523094819Y-108223524D02*
X523094819Y-108414000D01*
X523094819Y-108414000D02*
X523047200Y-108509238D01*
X523047200Y-108509238D02*
X522999580Y-108556857D01*
X522999580Y-108556857D02*
X522856723Y-108652095D01*
X522856723Y-108652095D02*
X522666247Y-108699714D01*
X522666247Y-108699714D02*
X522285295Y-108699714D01*
X522285295Y-108699714D02*
X522190057Y-108652095D01*
X522190057Y-108652095D02*
X522142438Y-108604476D01*
X522142438Y-108604476D02*
X522094819Y-108509238D01*
X522094819Y-108509238D02*
X522094819Y-108318762D01*
X522094819Y-108318762D02*
X522142438Y-108223524D01*
X522142438Y-108223524D02*
X522190057Y-108175905D01*
X522190057Y-108175905D02*
X522285295Y-108128286D01*
X522285295Y-108128286D02*
X522523390Y-108128286D01*
X522523390Y-108128286D02*
X522618628Y-108175905D01*
X522618628Y-108175905D02*
X522666247Y-108223524D01*
X522666247Y-108223524D02*
X522713866Y-108318762D01*
X522713866Y-108318762D02*
X522713866Y-108509238D01*
X522713866Y-108509238D02*
X522666247Y-108604476D01*
X522666247Y-108604476D02*
X522618628Y-108652095D01*
X522618628Y-108652095D02*
X522523390Y-108699714D01*
X602334580Y-59507142D02*
X602382200Y-59459523D01*
X602382200Y-59459523D02*
X602429819Y-59316666D01*
X602429819Y-59316666D02*
X602429819Y-59221428D01*
X602429819Y-59221428D02*
X602382200Y-59078571D01*
X602382200Y-59078571D02*
X602286961Y-58983333D01*
X602286961Y-58983333D02*
X602191723Y-58935714D01*
X602191723Y-58935714D02*
X602001247Y-58888095D01*
X602001247Y-58888095D02*
X601858390Y-58888095D01*
X601858390Y-58888095D02*
X601667914Y-58935714D01*
X601667914Y-58935714D02*
X601572676Y-58983333D01*
X601572676Y-58983333D02*
X601477438Y-59078571D01*
X601477438Y-59078571D02*
X601429819Y-59221428D01*
X601429819Y-59221428D02*
X601429819Y-59316666D01*
X601429819Y-59316666D02*
X601477438Y-59459523D01*
X601477438Y-59459523D02*
X601525057Y-59507142D01*
X601763152Y-60364285D02*
X602429819Y-60364285D01*
X601382200Y-60126190D02*
X602096485Y-59888095D01*
X602096485Y-59888095D02*
X602096485Y-60507142D01*
X601429819Y-61364285D02*
X601429819Y-60888095D01*
X601429819Y-60888095D02*
X601906009Y-60840476D01*
X601906009Y-60840476D02*
X601858390Y-60888095D01*
X601858390Y-60888095D02*
X601810771Y-60983333D01*
X601810771Y-60983333D02*
X601810771Y-61221428D01*
X601810771Y-61221428D02*
X601858390Y-61316666D01*
X601858390Y-61316666D02*
X601906009Y-61364285D01*
X601906009Y-61364285D02*
X602001247Y-61411904D01*
X602001247Y-61411904D02*
X602239342Y-61411904D01*
X602239342Y-61411904D02*
X602334580Y-61364285D01*
X602334580Y-61364285D02*
X602382200Y-61316666D01*
X602382200Y-61316666D02*
X602429819Y-61221428D01*
X602429819Y-61221428D02*
X602429819Y-60983333D01*
X602429819Y-60983333D02*
X602382200Y-60888095D01*
X602382200Y-60888095D02*
X602334580Y-60840476D01*
X515742857Y-56204819D02*
X516076190Y-55728628D01*
X516314285Y-56204819D02*
X516314285Y-55204819D01*
X516314285Y-55204819D02*
X515933333Y-55204819D01*
X515933333Y-55204819D02*
X515838095Y-55252438D01*
X515838095Y-55252438D02*
X515790476Y-55300057D01*
X515790476Y-55300057D02*
X515742857Y-55395295D01*
X515742857Y-55395295D02*
X515742857Y-55538152D01*
X515742857Y-55538152D02*
X515790476Y-55633390D01*
X515790476Y-55633390D02*
X515838095Y-55681009D01*
X515838095Y-55681009D02*
X515933333Y-55728628D01*
X515933333Y-55728628D02*
X516314285Y-55728628D01*
X514790476Y-56204819D02*
X515361904Y-56204819D01*
X515076190Y-56204819D02*
X515076190Y-55204819D01*
X515076190Y-55204819D02*
X515171428Y-55347676D01*
X515171428Y-55347676D02*
X515266666Y-55442914D01*
X515266666Y-55442914D02*
X515361904Y-55490533D01*
X514457142Y-55204819D02*
X513838095Y-55204819D01*
X513838095Y-55204819D02*
X514171428Y-55585771D01*
X514171428Y-55585771D02*
X514028571Y-55585771D01*
X514028571Y-55585771D02*
X513933333Y-55633390D01*
X513933333Y-55633390D02*
X513885714Y-55681009D01*
X513885714Y-55681009D02*
X513838095Y-55776247D01*
X513838095Y-55776247D02*
X513838095Y-56014342D01*
X513838095Y-56014342D02*
X513885714Y-56109580D01*
X513885714Y-56109580D02*
X513933333Y-56157200D01*
X513933333Y-56157200D02*
X514028571Y-56204819D01*
X514028571Y-56204819D02*
X514314285Y-56204819D01*
X514314285Y-56204819D02*
X514409523Y-56157200D01*
X514409523Y-56157200D02*
X514457142Y-56109580D01*
X561689285Y-100104819D02*
X561689285Y-99104819D01*
X561689285Y-99104819D02*
X561451190Y-99104819D01*
X561451190Y-99104819D02*
X561308333Y-99152438D01*
X561308333Y-99152438D02*
X561213095Y-99247676D01*
X561213095Y-99247676D02*
X561165476Y-99342914D01*
X561165476Y-99342914D02*
X561117857Y-99533390D01*
X561117857Y-99533390D02*
X561117857Y-99676247D01*
X561117857Y-99676247D02*
X561165476Y-99866723D01*
X561165476Y-99866723D02*
X561213095Y-99961961D01*
X561213095Y-99961961D02*
X561308333Y-100057200D01*
X561308333Y-100057200D02*
X561451190Y-100104819D01*
X561451190Y-100104819D02*
X561689285Y-100104819D01*
X560165476Y-100104819D02*
X560736904Y-100104819D01*
X560451190Y-100104819D02*
X560451190Y-99104819D01*
X560451190Y-99104819D02*
X560546428Y-99247676D01*
X560546428Y-99247676D02*
X560641666Y-99342914D01*
X560641666Y-99342914D02*
X560736904Y-99390533D01*
X559260714Y-99104819D02*
X559736904Y-99104819D01*
X559736904Y-99104819D02*
X559784523Y-99581009D01*
X559784523Y-99581009D02*
X559736904Y-99533390D01*
X559736904Y-99533390D02*
X559641666Y-99485771D01*
X559641666Y-99485771D02*
X559403571Y-99485771D01*
X559403571Y-99485771D02*
X559308333Y-99533390D01*
X559308333Y-99533390D02*
X559260714Y-99581009D01*
X559260714Y-99581009D02*
X559213095Y-99676247D01*
X559213095Y-99676247D02*
X559213095Y-99914342D01*
X559213095Y-99914342D02*
X559260714Y-100009580D01*
X559260714Y-100009580D02*
X559308333Y-100057200D01*
X559308333Y-100057200D02*
X559403571Y-100104819D01*
X559403571Y-100104819D02*
X559641666Y-100104819D01*
X559641666Y-100104819D02*
X559736904Y-100057200D01*
X559736904Y-100057200D02*
X559784523Y-100009580D01*
X561292857Y-85179819D02*
X561626190Y-84703628D01*
X561864285Y-85179819D02*
X561864285Y-84179819D01*
X561864285Y-84179819D02*
X561483333Y-84179819D01*
X561483333Y-84179819D02*
X561388095Y-84227438D01*
X561388095Y-84227438D02*
X561340476Y-84275057D01*
X561340476Y-84275057D02*
X561292857Y-84370295D01*
X561292857Y-84370295D02*
X561292857Y-84513152D01*
X561292857Y-84513152D02*
X561340476Y-84608390D01*
X561340476Y-84608390D02*
X561388095Y-84656009D01*
X561388095Y-84656009D02*
X561483333Y-84703628D01*
X561483333Y-84703628D02*
X561864285Y-84703628D01*
X560340476Y-85179819D02*
X560911904Y-85179819D01*
X560626190Y-85179819D02*
X560626190Y-84179819D01*
X560626190Y-84179819D02*
X560721428Y-84322676D01*
X560721428Y-84322676D02*
X560816666Y-84417914D01*
X560816666Y-84417914D02*
X560911904Y-84465533D01*
X559388095Y-85179819D02*
X559959523Y-85179819D01*
X559673809Y-85179819D02*
X559673809Y-84179819D01*
X559673809Y-84179819D02*
X559769047Y-84322676D01*
X559769047Y-84322676D02*
X559864285Y-84417914D01*
X559864285Y-84417914D02*
X559959523Y-84465533D01*
X515817857Y-53309580D02*
X515865476Y-53357200D01*
X515865476Y-53357200D02*
X516008333Y-53404819D01*
X516008333Y-53404819D02*
X516103571Y-53404819D01*
X516103571Y-53404819D02*
X516246428Y-53357200D01*
X516246428Y-53357200D02*
X516341666Y-53261961D01*
X516341666Y-53261961D02*
X516389285Y-53166723D01*
X516389285Y-53166723D02*
X516436904Y-52976247D01*
X516436904Y-52976247D02*
X516436904Y-52833390D01*
X516436904Y-52833390D02*
X516389285Y-52642914D01*
X516389285Y-52642914D02*
X516341666Y-52547676D01*
X516341666Y-52547676D02*
X516246428Y-52452438D01*
X516246428Y-52452438D02*
X516103571Y-52404819D01*
X516103571Y-52404819D02*
X516008333Y-52404819D01*
X516008333Y-52404819D02*
X515865476Y-52452438D01*
X515865476Y-52452438D02*
X515817857Y-52500057D01*
X515484523Y-52404819D02*
X514865476Y-52404819D01*
X514865476Y-52404819D02*
X515198809Y-52785771D01*
X515198809Y-52785771D02*
X515055952Y-52785771D01*
X515055952Y-52785771D02*
X514960714Y-52833390D01*
X514960714Y-52833390D02*
X514913095Y-52881009D01*
X514913095Y-52881009D02*
X514865476Y-52976247D01*
X514865476Y-52976247D02*
X514865476Y-53214342D01*
X514865476Y-53214342D02*
X514913095Y-53309580D01*
X514913095Y-53309580D02*
X514960714Y-53357200D01*
X514960714Y-53357200D02*
X515055952Y-53404819D01*
X515055952Y-53404819D02*
X515341666Y-53404819D01*
X515341666Y-53404819D02*
X515436904Y-53357200D01*
X515436904Y-53357200D02*
X515484523Y-53309580D01*
X513913095Y-53404819D02*
X514484523Y-53404819D01*
X514198809Y-53404819D02*
X514198809Y-52404819D01*
X514198809Y-52404819D02*
X514294047Y-52547676D01*
X514294047Y-52547676D02*
X514389285Y-52642914D01*
X514389285Y-52642914D02*
X514484523Y-52690533D01*
X531392166Y-113412080D02*
X531439785Y-113459700D01*
X531439785Y-113459700D02*
X531582642Y-113507319D01*
X531582642Y-113507319D02*
X531677880Y-113507319D01*
X531677880Y-113507319D02*
X531820737Y-113459700D01*
X531820737Y-113459700D02*
X531915975Y-113364461D01*
X531915975Y-113364461D02*
X531963594Y-113269223D01*
X531963594Y-113269223D02*
X532011213Y-113078747D01*
X532011213Y-113078747D02*
X532011213Y-112935890D01*
X532011213Y-112935890D02*
X531963594Y-112745414D01*
X531963594Y-112745414D02*
X531915975Y-112650176D01*
X531915975Y-112650176D02*
X531820737Y-112554938D01*
X531820737Y-112554938D02*
X531677880Y-112507319D01*
X531677880Y-112507319D02*
X531582642Y-112507319D01*
X531582642Y-112507319D02*
X531439785Y-112554938D01*
X531439785Y-112554938D02*
X531392166Y-112602557D01*
X531058832Y-112507319D02*
X530392166Y-112507319D01*
X530392166Y-112507319D02*
X530820737Y-113507319D01*
X602409580Y-2532142D02*
X602457200Y-2484523D01*
X602457200Y-2484523D02*
X602504819Y-2341666D01*
X602504819Y-2341666D02*
X602504819Y-2246428D01*
X602504819Y-2246428D02*
X602457200Y-2103571D01*
X602457200Y-2103571D02*
X602361961Y-2008333D01*
X602361961Y-2008333D02*
X602266723Y-1960714D01*
X602266723Y-1960714D02*
X602076247Y-1913095D01*
X602076247Y-1913095D02*
X601933390Y-1913095D01*
X601933390Y-1913095D02*
X601742914Y-1960714D01*
X601742914Y-1960714D02*
X601647676Y-2008333D01*
X601647676Y-2008333D02*
X601552438Y-2103571D01*
X601552438Y-2103571D02*
X601504819Y-2246428D01*
X601504819Y-2246428D02*
X601504819Y-2341666D01*
X601504819Y-2341666D02*
X601552438Y-2484523D01*
X601552438Y-2484523D02*
X601600057Y-2532142D01*
X601838152Y-3389285D02*
X602504819Y-3389285D01*
X601457200Y-3151190D02*
X602171485Y-2913095D01*
X602171485Y-2913095D02*
X602171485Y-3532142D01*
X601504819Y-4341666D02*
X601504819Y-4151190D01*
X601504819Y-4151190D02*
X601552438Y-4055952D01*
X601552438Y-4055952D02*
X601600057Y-4008333D01*
X601600057Y-4008333D02*
X601742914Y-3913095D01*
X601742914Y-3913095D02*
X601933390Y-3865476D01*
X601933390Y-3865476D02*
X602314342Y-3865476D01*
X602314342Y-3865476D02*
X602409580Y-3913095D01*
X602409580Y-3913095D02*
X602457200Y-3960714D01*
X602457200Y-3960714D02*
X602504819Y-4055952D01*
X602504819Y-4055952D02*
X602504819Y-4246428D01*
X602504819Y-4246428D02*
X602457200Y-4341666D01*
X602457200Y-4341666D02*
X602409580Y-4389285D01*
X602409580Y-4389285D02*
X602314342Y-4436904D01*
X602314342Y-4436904D02*
X602076247Y-4436904D01*
X602076247Y-4436904D02*
X601981009Y-4389285D01*
X601981009Y-4389285D02*
X601933390Y-4341666D01*
X601933390Y-4341666D02*
X601885771Y-4246428D01*
X601885771Y-4246428D02*
X601885771Y-4055952D01*
X601885771Y-4055952D02*
X601933390Y-3960714D01*
X601933390Y-3960714D02*
X601981009Y-3913095D01*
X601981009Y-3913095D02*
X602076247Y-3865476D01*
X522999580Y-117947333D02*
X523047200Y-117899714D01*
X523047200Y-117899714D02*
X523094819Y-117756857D01*
X523094819Y-117756857D02*
X523094819Y-117661619D01*
X523094819Y-117661619D02*
X523047200Y-117518762D01*
X523047200Y-117518762D02*
X522951961Y-117423524D01*
X522951961Y-117423524D02*
X522856723Y-117375905D01*
X522856723Y-117375905D02*
X522666247Y-117328286D01*
X522666247Y-117328286D02*
X522523390Y-117328286D01*
X522523390Y-117328286D02*
X522332914Y-117375905D01*
X522332914Y-117375905D02*
X522237676Y-117423524D01*
X522237676Y-117423524D02*
X522142438Y-117518762D01*
X522142438Y-117518762D02*
X522094819Y-117661619D01*
X522094819Y-117661619D02*
X522094819Y-117756857D01*
X522094819Y-117756857D02*
X522142438Y-117899714D01*
X522142438Y-117899714D02*
X522190057Y-117947333D01*
X522523390Y-118518762D02*
X522475771Y-118423524D01*
X522475771Y-118423524D02*
X522428152Y-118375905D01*
X522428152Y-118375905D02*
X522332914Y-118328286D01*
X522332914Y-118328286D02*
X522285295Y-118328286D01*
X522285295Y-118328286D02*
X522190057Y-118375905D01*
X522190057Y-118375905D02*
X522142438Y-118423524D01*
X522142438Y-118423524D02*
X522094819Y-118518762D01*
X522094819Y-118518762D02*
X522094819Y-118709238D01*
X522094819Y-118709238D02*
X522142438Y-118804476D01*
X522142438Y-118804476D02*
X522190057Y-118852095D01*
X522190057Y-118852095D02*
X522285295Y-118899714D01*
X522285295Y-118899714D02*
X522332914Y-118899714D01*
X522332914Y-118899714D02*
X522428152Y-118852095D01*
X522428152Y-118852095D02*
X522475771Y-118804476D01*
X522475771Y-118804476D02*
X522523390Y-118709238D01*
X522523390Y-118709238D02*
X522523390Y-118518762D01*
X522523390Y-118518762D02*
X522571009Y-118423524D01*
X522571009Y-118423524D02*
X522618628Y-118375905D01*
X522618628Y-118375905D02*
X522713866Y-118328286D01*
X522713866Y-118328286D02*
X522904342Y-118328286D01*
X522904342Y-118328286D02*
X522999580Y-118375905D01*
X522999580Y-118375905D02*
X523047200Y-118423524D01*
X523047200Y-118423524D02*
X523094819Y-118518762D01*
X523094819Y-118518762D02*
X523094819Y-118709238D01*
X523094819Y-118709238D02*
X523047200Y-118804476D01*
X523047200Y-118804476D02*
X522999580Y-118852095D01*
X522999580Y-118852095D02*
X522904342Y-118899714D01*
X522904342Y-118899714D02*
X522713866Y-118899714D01*
X522713866Y-118899714D02*
X522618628Y-118852095D01*
X522618628Y-118852095D02*
X522571009Y-118804476D01*
X522571009Y-118804476D02*
X522523390Y-118709238D01*
X602384580Y-87557142D02*
X602432200Y-87509523D01*
X602432200Y-87509523D02*
X602479819Y-87366666D01*
X602479819Y-87366666D02*
X602479819Y-87271428D01*
X602479819Y-87271428D02*
X602432200Y-87128571D01*
X602432200Y-87128571D02*
X602336961Y-87033333D01*
X602336961Y-87033333D02*
X602241723Y-86985714D01*
X602241723Y-86985714D02*
X602051247Y-86938095D01*
X602051247Y-86938095D02*
X601908390Y-86938095D01*
X601908390Y-86938095D02*
X601717914Y-86985714D01*
X601717914Y-86985714D02*
X601622676Y-87033333D01*
X601622676Y-87033333D02*
X601527438Y-87128571D01*
X601527438Y-87128571D02*
X601479819Y-87271428D01*
X601479819Y-87271428D02*
X601479819Y-87366666D01*
X601479819Y-87366666D02*
X601527438Y-87509523D01*
X601527438Y-87509523D02*
X601575057Y-87557142D01*
X601479819Y-88461904D02*
X601479819Y-87985714D01*
X601479819Y-87985714D02*
X601956009Y-87938095D01*
X601956009Y-87938095D02*
X601908390Y-87985714D01*
X601908390Y-87985714D02*
X601860771Y-88080952D01*
X601860771Y-88080952D02*
X601860771Y-88319047D01*
X601860771Y-88319047D02*
X601908390Y-88414285D01*
X601908390Y-88414285D02*
X601956009Y-88461904D01*
X601956009Y-88461904D02*
X602051247Y-88509523D01*
X602051247Y-88509523D02*
X602289342Y-88509523D01*
X602289342Y-88509523D02*
X602384580Y-88461904D01*
X602384580Y-88461904D02*
X602432200Y-88414285D01*
X602432200Y-88414285D02*
X602479819Y-88319047D01*
X602479819Y-88319047D02*
X602479819Y-88080952D01*
X602479819Y-88080952D02*
X602432200Y-87985714D01*
X602432200Y-87985714D02*
X602384580Y-87938095D01*
X601813152Y-89366666D02*
X602479819Y-89366666D01*
X601432200Y-89128571D02*
X602146485Y-88890476D01*
X602146485Y-88890476D02*
X602146485Y-89509523D01*
X611384580Y-132657142D02*
X611432200Y-132609523D01*
X611432200Y-132609523D02*
X611479819Y-132466666D01*
X611479819Y-132466666D02*
X611479819Y-132371428D01*
X611479819Y-132371428D02*
X611432200Y-132228571D01*
X611432200Y-132228571D02*
X611336961Y-132133333D01*
X611336961Y-132133333D02*
X611241723Y-132085714D01*
X611241723Y-132085714D02*
X611051247Y-132038095D01*
X611051247Y-132038095D02*
X610908390Y-132038095D01*
X610908390Y-132038095D02*
X610717914Y-132085714D01*
X610717914Y-132085714D02*
X610622676Y-132133333D01*
X610622676Y-132133333D02*
X610527438Y-132228571D01*
X610527438Y-132228571D02*
X610479819Y-132371428D01*
X610479819Y-132371428D02*
X610479819Y-132466666D01*
X610479819Y-132466666D02*
X610527438Y-132609523D01*
X610527438Y-132609523D02*
X610575057Y-132657142D01*
X610479819Y-132990476D02*
X610479819Y-133609523D01*
X610479819Y-133609523D02*
X610860771Y-133276190D01*
X610860771Y-133276190D02*
X610860771Y-133419047D01*
X610860771Y-133419047D02*
X610908390Y-133514285D01*
X610908390Y-133514285D02*
X610956009Y-133561904D01*
X610956009Y-133561904D02*
X611051247Y-133609523D01*
X611051247Y-133609523D02*
X611289342Y-133609523D01*
X611289342Y-133609523D02*
X611384580Y-133561904D01*
X611384580Y-133561904D02*
X611432200Y-133514285D01*
X611432200Y-133514285D02*
X611479819Y-133419047D01*
X611479819Y-133419047D02*
X611479819Y-133133333D01*
X611479819Y-133133333D02*
X611432200Y-133038095D01*
X611432200Y-133038095D02*
X611384580Y-132990476D01*
X610479819Y-133942857D02*
X610479819Y-134609523D01*
X610479819Y-134609523D02*
X611479819Y-134180952D01*
D12*
%TO.C,RV1*%
X520640000Y-114714000D02*
X520040000Y-114714000D01*
%TO.C,D11*%
X601175000Y-66567500D02*
X601175000Y-70037500D01*
X602825000Y-67337500D02*
X602825000Y-70037500D01*
D13*
%TO.C,R52*%
X559877500Y-106262258D02*
X559877500Y-105787742D01*
X560922500Y-106262258D02*
X560922500Y-105787742D01*
%TO.C,C29*%
X518961252Y-24765000D02*
X518438748Y-24765000D01*
X518961252Y-26235000D02*
X518438748Y-26235000D01*
%TO.C,R12*%
X518939564Y-27665000D02*
X518485436Y-27665000D01*
X518939564Y-29135000D02*
X518485436Y-29135000D01*
D12*
%TO.C,D12*%
X601175000Y-9575000D02*
X601175000Y-13045000D01*
X602825000Y-10345000D02*
X602825000Y-13045000D01*
%TO.C,D14*%
X601200000Y-94830000D02*
X601200000Y-98300000D01*
X602850000Y-95600000D02*
X602850000Y-98300000D01*
D13*
%TO.C,C38*%
X608666252Y-153900000D02*
X607243748Y-153900000D01*
X608666252Y-156620000D02*
X607243748Y-156620000D01*
D12*
%TO.C,RV2*%
X520640000Y-111214000D02*
X520040000Y-111214000D01*
D13*
%TO.C,C53*%
X601265000Y-35111252D02*
X601265000Y-34588748D01*
X602735000Y-35111252D02*
X602735000Y-34588748D01*
%TO.C,R61*%
X518869564Y-86085000D02*
X518415436Y-86085000D01*
X518869564Y-87555000D02*
X518415436Y-87555000D01*
%TO.C,C15*%
X562784420Y-80590000D02*
X563065580Y-80590000D01*
X562784420Y-81610000D02*
X563065580Y-81610000D01*
%TO.C,R10*%
X563677500Y-78162258D02*
X563677500Y-77687742D01*
X564722500Y-78162258D02*
X564722500Y-77687742D01*
%TO.C,R3*%
X526310936Y-114417500D02*
X526765064Y-114417500D01*
X526310936Y-115887500D02*
X526765064Y-115887500D01*
%TO.C,R4*%
X526765064Y-109917500D02*
X526310936Y-109917500D01*
X526765064Y-111387500D02*
X526310936Y-111387500D01*
D12*
%TO.C,D13*%
X601175000Y-37780000D02*
X601175000Y-41250000D01*
X602825000Y-38550000D02*
X602825000Y-41250000D01*
D13*
%TO.C,C68*%
X518941252Y-83585000D02*
X518418748Y-83585000D01*
X518941252Y-85055000D02*
X518418748Y-85055000D01*
%TO.C,C9*%
X521905000Y-110802748D02*
X521905000Y-111325252D01*
X523375000Y-110802748D02*
X523375000Y-111325252D01*
%TO.C,C45*%
X601265000Y-63898752D02*
X601265000Y-63376248D01*
X602735000Y-63898752D02*
X602735000Y-63376248D01*
%TO.C,R13*%
X519039564Y-55015000D02*
X518585436Y-55015000D01*
X519039564Y-56485000D02*
X518585436Y-56485000D01*
D12*
%TO.C,D15*%
X557120000Y-99900000D02*
X557120000Y-99300000D01*
D13*
%TO.C,R11*%
X560537742Y-82477500D02*
X561012258Y-82477500D01*
X560537742Y-83522500D02*
X561012258Y-83522500D01*
%TO.C,C31*%
X519061252Y-52215000D02*
X518538748Y-52215000D01*
X519061252Y-53685000D02*
X518538748Y-53685000D01*
%TO.C,C7*%
X528214248Y-112217500D02*
X528736752Y-112217500D01*
X528214248Y-113687500D02*
X528736752Y-113687500D01*
%TO.C,C46*%
X601265000Y-6906252D02*
X601265000Y-6383748D01*
X602735000Y-6906252D02*
X602735000Y-6383748D01*
%TO.C,C8*%
X521905000Y-114502748D02*
X521905000Y-115025252D01*
X523375000Y-114502748D02*
X523375000Y-115025252D01*
%TO.C,C54*%
X601290000Y-92161252D02*
X601290000Y-91638748D01*
X602760000Y-92161252D02*
X602760000Y-91638748D01*
%TO.C,C37*%
X608611252Y-131990000D02*
X607188748Y-131990000D01*
X608611252Y-134710000D02*
X607188748Y-134710000D01*
%TD*%
M02*
