%TF.GenerationSoftware,KiCad,Pcbnew,9.0.5*%
%TF.CreationDate,2025-10-23T13:35:12+02:00*%
%TF.ProjectId,AETS-CZ-NB-3L0Y7S3,41455453-2d43-45a2-9d4e-422d334c3059,rev?*%
%TF.SameCoordinates,Original*%
%TF.FileFunction,Soldermask,Top*%
%TF.FilePolarity,Negative*%
%FSLAX46Y46*%
G04 Gerber Fmt 4.6, Leading zero omitted, Abs format (unit mm)*
G04 Created by KiCad (PCBNEW 9.0.5) date 2025-10-23 13:35:12*
%MOMM*%
%LPD*%
G01*
G04 APERTURE LIST*
G04 Aperture macros list*
%AMRoundRect*
0 Rectangle with rounded corners*
0 $1 Rounding radius*
0 $2 $3 $4 $5 $6 $7 $8 $9 X,Y pos of 4 corners*
0 Add a 4 corners polygon primitive as box body*
4,1,4,$2,$3,$4,$5,$6,$7,$8,$9,$2,$3,0*
0 Add four circle primitives for the rounded corners*
1,1,$1+$1,$2,$3*
1,1,$1+$1,$4,$5*
1,1,$1+$1,$6,$7*
1,1,$1+$1,$8,$9*
0 Add four rect primitives between the rounded corners*
20,1,$1+$1,$2,$3,$4,$5,0*
20,1,$1+$1,$4,$5,$6,$7,0*
20,1,$1+$1,$6,$7,$8,$9,0*
20,1,$1+$1,$8,$9,$2,$3,0*%
G04 Aperture macros list end*
%ADD10RoundRect,0.287500X0.512500X-0.287500X0.512500X0.287500X-0.512500X0.287500X-0.512500X-0.287500X0*%
%ADD11RoundRect,0.286585X-0.488415X0.300915X-0.488415X-0.300915X0.488415X-0.300915X0.488415X0.300915X0*%
%ADD12RoundRect,0.287500X0.287500X0.512500X-0.287500X0.512500X-0.287500X-0.512500X0.287500X-0.512500X0*%
%ADD13RoundRect,0.286585X-0.300915X-0.488415X0.300915X-0.488415X0.300915X0.488415X-0.300915X0.488415X0*%
%ADD14RoundRect,0.287500X-0.287500X-0.512500X0.287500X-0.512500X0.287500X0.512500X-0.287500X0.512500X0*%
%ADD15RoundRect,0.237500X0.312500X-0.237500X0.312500X0.237500X-0.312500X0.237500X-0.312500X-0.237500X0*%
%ADD16RoundRect,0.075000X1.600000X-0.800000X1.600000X0.800000X-1.600000X0.800000X-1.600000X-0.800000X0*%
%ADD17RoundRect,0.075000X-0.300000X-0.600000X0.300000X-0.600000X0.300000X0.600000X-0.300000X0.600000X0*%
%ADD18RoundRect,0.262500X0.262500X0.287500X-0.262500X0.287500X-0.262500X-0.287500X0.262500X-0.287500X0*%
%ADD19RoundRect,0.237500X-0.237500X-0.312500X0.237500X-0.312500X0.237500X0.312500X-0.237500X0.312500X0*%
%ADD20RoundRect,0.075000X0.700000X0.700000X-0.700000X0.700000X-0.700000X-0.700000X0.700000X-0.700000X0*%
%ADD21C,1.550000*%
%ADD22RoundRect,0.262500X-0.287500X0.262500X-0.287500X-0.262500X0.287500X-0.262500X0.287500X0.262500X0*%
%ADD23C,0.850000*%
%ADD24C,4.550000*%
%ADD25RoundRect,0.075000X0.325000X0.550000X-0.325000X0.550000X-0.325000X-0.550000X0.325000X-0.550000X0*%
%ADD26RoundRect,0.075000X0.800000X-0.500000X0.800000X0.500000X-0.800000X0.500000X-0.800000X-0.500000X0*%
%ADD27RoundRect,0.075000X0.475000X-0.400000X0.475000X0.400000X-0.475000X0.400000X-0.475000X-0.400000X0*%
%ADD28RoundRect,0.075000X2.375000X2.375000X-2.375000X2.375000X-2.375000X-2.375000X2.375000X-2.375000X0*%
%ADD29C,5.050000*%
%ADD30C,5.610000*%
%ADD31RoundRect,0.286585X0.488415X-0.300915X0.488415X0.300915X-0.488415X0.300915X-0.488415X-0.300915X0*%
%ADD32RoundRect,0.075000X0.700000X-0.700000X0.700000X0.700000X-0.700000X0.700000X-0.700000X-0.700000X0*%
%ADD33C,3.150000*%
%ADD34RoundRect,0.286585X0.300915X0.488415X-0.300915X0.488415X-0.300915X-0.488415X0.300915X-0.488415X0*%
%ADD35RoundRect,0.287500X-0.512500X0.287500X-0.512500X-0.287500X0.512500X-0.287500X0.512500X0.287500X0*%
%ADD36RoundRect,0.075000X0.500000X-0.350000X0.500000X0.350000X-0.500000X0.350000X-0.500000X-0.350000X0*%
%ADD37RoundRect,0.187500X0.862500X0.187500X-0.862500X0.187500X-0.862500X-0.187500X0.862500X-0.187500X0*%
%ADD38RoundRect,0.262500X0.287500X-0.262500X0.287500X0.262500X-0.287500X0.262500X-0.287500X-0.262500X0*%
%ADD39RoundRect,0.075000X0.850000X-0.850000X0.850000X0.850000X-0.850000X0.850000X-0.850000X-0.850000X0*%
%ADD40C,1.850000*%
%ADD41RoundRect,0.075000X-1.075000X-1.100000X1.075000X-1.100000X1.075000X1.100000X-1.075000X1.100000X0*%
%ADD42RoundRect,0.075000X0.925000X-0.925000X0.925000X0.925000X-0.925000X0.925000X-0.925000X-0.925000X0*%
%ADD43C,2.000000*%
%ADD44RoundRect,0.262500X-0.262500X-0.287500X0.262500X-0.287500X0.262500X0.287500X-0.262500X0.287500X0*%
%ADD45RoundRect,0.237500X-0.312500X0.237500X-0.312500X-0.237500X0.312500X-0.237500X0.312500X0.237500X0*%
%ADD46RoundRect,0.075000X0.825000X0.825000X-0.825000X0.825000X-0.825000X-0.825000X0.825000X-0.825000X0*%
%ADD47C,1.800000*%
%ADD48RoundRect,0.075000X-1.100000X1.075000X-1.100000X-1.075000X1.100000X-1.075000X1.100000X1.075000X0*%
%ADD49RoundRect,0.075000X-0.550000X-0.650000X0.550000X-0.650000X0.550000X0.650000X-0.550000X0.650000X0*%
%ADD50RoundRect,0.282608X-0.367392X-1.142392X0.367392X-1.142392X0.367392X1.142392X-0.367392X1.142392X0*%
%ADD51RoundRect,0.075000X-0.300000X0.300000X-0.300000X-0.300000X0.300000X-0.300000X0.300000X0.300000X0*%
%ADD52RoundRect,0.075000X-0.300000X0.200000X-0.300000X-0.200000X0.300000X-0.200000X0.300000X0.200000X0*%
%ADD53RoundRect,0.075000X-0.325000X-0.550000X0.325000X-0.550000X0.325000X0.550000X-0.325000X0.550000X0*%
%ADD54C,2.400000*%
%ADD55C,1.650000*%
%ADD56C,4.950000*%
%ADD57RoundRect,0.075000X-0.900000X0.900000X-0.900000X-0.900000X0.900000X-0.900000X0.900000X0.900000X0*%
%ADD58C,1.950000*%
%ADD59RoundRect,0.281250X-0.393750X-0.493750X0.393750X-0.493750X0.393750X0.493750X-0.393750X0.493750X0*%
%ADD60C,2.800000*%
%ADD61C,2.550000*%
%ADD62C,1.500000*%
%ADD63RoundRect,0.075000X0.762500X-0.325000X0.762500X0.325000X-0.762500X0.325000X-0.762500X-0.325000X0*%
%ADD64RoundRect,0.075000X-0.500000X0.350000X-0.500000X-0.350000X0.500000X-0.350000X0.500000X0.350000X0*%
%ADD65RoundRect,0.075000X0.850000X0.850000X-0.850000X0.850000X-0.850000X-0.850000X0.850000X-0.850000X0*%
%ADD66RoundRect,0.282608X0.367392X1.142392X-0.367392X1.142392X-0.367392X-1.142392X0.367392X-1.142392X0*%
%ADD67RoundRect,0.281250X-0.281250X-0.493750X0.281250X-0.493750X0.281250X0.493750X-0.281250X0.493750X0*%
%ADD68C,0.800000*%
%ADD69RoundRect,0.187500X-0.462500X0.187500X-0.462500X-0.187500X0.462500X-0.187500X0.462500X0.187500X0*%
%ADD70RoundRect,0.112500X-0.537500X0.112500X-0.537500X-0.112500X0.537500X-0.112500X0.537500X0.112500X0*%
%ADD71O,2.250000X1.150000*%
%ADD72O,1.950000X1.150000*%
%ADD73RoundRect,0.075000X-0.750000X-1.400000X0.750000X-1.400000X0.750000X1.400000X-0.750000X1.400000X0*%
%ADD74RoundRect,0.075000X3.150000X-3.050000X3.150000X3.050000X-3.150000X3.050000X-3.150000X-3.050000X0*%
%ADD75RoundRect,0.075000X0.305000X0.635000X-0.305000X0.635000X-0.305000X-0.635000X0.305000X-0.635000X0*%
%ADD76RoundRect,0.075000X0.305000X0.355000X-0.305000X0.355000X-0.305000X-0.355000X0.305000X-0.355000X0*%
%ADD77RoundRect,0.075000X1.955000X-1.905000X1.955000X1.905000X-1.955000X1.905000X-1.955000X-1.905000X0*%
%ADD78RoundRect,0.075000X0.127500X0.160000X-0.127500X0.160000X-0.127500X-0.160000X0.127500X-0.160000X0*%
%ADD79RoundRect,0.075000X-0.300000X-0.525000X0.300000X-0.525000X0.300000X0.525000X-0.300000X0.525000X0*%
%ADD80RoundRect,0.075000X-0.985000X0.835000X-0.985000X-0.835000X0.985000X-0.835000X0.985000X0.835000X0*%
%ADD81RoundRect,0.075000X-0.305000X-0.635000X0.305000X-0.635000X0.305000X0.635000X-0.305000X0.635000X0*%
%ADD82RoundRect,0.075000X-0.305000X-0.355000X0.305000X-0.355000X0.305000X0.355000X-0.305000X0.355000X0*%
%ADD83RoundRect,0.075000X-1.955000X1.905000X-1.955000X-1.905000X1.955000X-1.905000X1.955000X1.905000X0*%
%ADD84RoundRect,0.075000X-0.127500X-0.160000X0.127500X-0.160000X0.127500X0.160000X-0.127500X0.160000X0*%
%ADD85RoundRect,0.075000X-0.400000X-0.475000X0.400000X-0.475000X0.400000X0.475000X-0.400000X0.475000X0*%
%ADD86RoundRect,0.075000X0.900000X-0.900000X0.900000X0.900000X-0.900000X0.900000X-0.900000X-0.900000X0*%
%ADD87RoundRect,0.187500X-0.625000X-0.187500X0.625000X-0.187500X0.625000X0.187500X-0.625000X0.187500X0*%
%ADD88RoundRect,0.075000X-0.737500X0.150000X-0.737500X-0.150000X0.737500X-0.150000X0.737500X0.150000X0*%
%ADD89RoundRect,0.075000X0.150000X0.737500X-0.150000X0.737500X-0.150000X-0.737500X0.150000X-0.737500X0*%
%ADD90RoundRect,0.075000X-0.762500X0.325000X-0.762500X-0.325000X0.762500X-0.325000X0.762500X0.325000X0*%
%ADD91RoundRect,0.282608X1.142392X-0.367392X1.142392X0.367392X-1.142392X0.367392X-1.142392X-0.367392X0*%
%ADD92RoundRect,0.075000X0.350000X0.500000X-0.350000X0.500000X-0.350000X-0.500000X0.350000X-0.500000X0*%
G04 APERTURE END LIST*
D10*
%TO.C,C49*%
X593400000Y-81687500D03*
X593400000Y-79787500D03*
%TD*%
D11*
%TO.C,R24*%
X615575000Y-119050000D03*
X615575000Y-120875000D03*
%TD*%
D12*
%TO.C,C63*%
X555500000Y-123300000D03*
X553600000Y-123300000D03*
%TD*%
D13*
%TO.C,R26*%
X617075000Y-126750000D03*
X618900000Y-126750000D03*
%TD*%
%TO.C,R39*%
X593700000Y-104650000D03*
X595525000Y-104650000D03*
%TD*%
D14*
%TO.C,C30*%
X598175000Y-124350000D03*
X600075000Y-124350000D03*
%TD*%
D15*
%TO.C,R47*%
X574922227Y-64800000D03*
X574922227Y-63150000D03*
%TD*%
D13*
%TO.C,R40*%
X597475000Y-47600000D03*
X599300000Y-47600000D03*
%TD*%
D16*
%TO.C,C27*%
X557000000Y-36750000D03*
X552000000Y-36750000D03*
%TD*%
D12*
%TO.C,C39*%
X613875000Y-126850000D03*
X611975000Y-126850000D03*
%TD*%
D17*
%TO.C,IC6*%
X567600000Y-26000000D03*
X566650000Y-26000000D03*
X565700000Y-26000000D03*
X565700000Y-28500000D03*
X567600000Y-28500000D03*
%TD*%
D18*
%TO.C,C23*%
X556400000Y-70850000D03*
X554850000Y-70850000D03*
%TD*%
D19*
%TO.C,R2*%
X569175000Y-81300000D03*
X570825000Y-81300000D03*
%TD*%
D10*
%TO.C,C64*%
X522300000Y-102250000D03*
X522300000Y-100350000D03*
%TD*%
%TO.C,C47*%
X602500000Y-79187500D03*
X602500000Y-77287500D03*
%TD*%
D20*
%TO.C,J5*%
X570750000Y-51750000D03*
D21*
X568250000Y-51750000D03*
X565750000Y-51750000D03*
X563250000Y-51750000D03*
X560750000Y-51750000D03*
X558250000Y-51750000D03*
%TD*%
D22*
%TO.C,C18*%
X568700000Y-74550000D03*
X568700000Y-76100000D03*
%TD*%
D12*
%TO.C,C25*%
X567650000Y-31000000D03*
X565750000Y-31000000D03*
%TD*%
D23*
%TO.C,H8*%
X645450000Y-69675000D03*
X645933274Y-68508274D03*
X645933274Y-70841726D03*
X647100000Y-68025000D03*
D24*
X647100000Y-69675000D03*
D23*
X647100000Y-71325000D03*
X648266726Y-68508274D03*
X648266726Y-70841726D03*
X648750000Y-69675000D03*
%TD*%
D25*
%TO.C,Q12*%
X597500000Y-16945000D03*
X599420000Y-16945000D03*
X598460000Y-14845000D03*
%TD*%
D26*
%TO.C,Q4*%
X603130000Y-142420000D03*
X603130000Y-144960000D03*
X612280000Y-144960000D03*
X612280000Y-142420000D03*
%TD*%
D27*
%TO.C,D4*%
X526900000Y-56100000D03*
X526900000Y-54500000D03*
%TD*%
D28*
%TO.C,J1*%
X523550000Y-7500000D03*
D29*
X520700000Y-12500000D03*
D30*
X517400000Y-7500000D03*
%TD*%
D31*
%TO.C,R35*%
X596000000Y-81612500D03*
X596000000Y-79787500D03*
%TD*%
D32*
%TO.C,J4*%
X522880000Y-54480000D03*
D21*
X522880000Y-57020000D03*
D33*
X517800000Y-49400000D03*
X517800000Y-59560000D03*
%TD*%
D34*
%TO.C,R42*%
X600000000Y-52800000D03*
X598175000Y-52800000D03*
%TD*%
D23*
%TO.C,H12*%
X646137500Y-88400000D03*
X646620774Y-87233274D03*
X646620774Y-89566726D03*
X647787500Y-86750000D03*
D24*
X647787500Y-88400000D03*
D23*
X647787500Y-90050000D03*
X648954226Y-87233274D03*
X648954226Y-89566726D03*
X649437500Y-88400000D03*
%TD*%
D13*
%TO.C,R14*%
X598150000Y-126850000D03*
X599975000Y-126850000D03*
%TD*%
D32*
%TO.C,J10*%
X522880000Y-85520000D03*
D21*
X522880000Y-88060000D03*
D33*
X517800000Y-80440000D03*
X517800000Y-90600000D03*
%TD*%
D35*
%TO.C,C33*%
X529000000Y-27600000D03*
X529000000Y-29500000D03*
%TD*%
D36*
%TO.C,Q1*%
X535300000Y-27750000D03*
X535300000Y-29650000D03*
X537700000Y-28700000D03*
%TD*%
D31*
%TO.C,R49*%
X564300000Y-120700000D03*
X564300000Y-118875000D03*
%TD*%
D37*
%TO.C,U4*%
X610450000Y-24865000D03*
X610450000Y-23595000D03*
X610450000Y-22325000D03*
X610450000Y-21055000D03*
X605500000Y-21055000D03*
X605500000Y-22325000D03*
X605500000Y-23595000D03*
X605500000Y-24865000D03*
%TD*%
D34*
%TO.C,R16*%
X531025000Y-25400000D03*
X529200000Y-25400000D03*
%TD*%
D13*
%TO.C,R38*%
X593675000Y-47600000D03*
X595500000Y-47600000D03*
%TD*%
D38*
%TO.C,C2*%
X572500000Y-79300000D03*
X572500000Y-77750000D03*
%TD*%
D39*
%TO.C,J8*%
X550200000Y-102500000D03*
D40*
X552740000Y-102500000D03*
X555280000Y-102500000D03*
X557820000Y-102500000D03*
X560360000Y-102500000D03*
%TD*%
D13*
%TO.C,R41*%
X597500000Y-104650000D03*
X599325000Y-104650000D03*
%TD*%
D41*
%TO.C,D2*%
X541500000Y-6500000D03*
X541500000Y-10900000D03*
%TD*%
D13*
%TO.C,R19*%
X521775000Y-43600000D03*
X523600000Y-43600000D03*
%TD*%
%TO.C,R32*%
X597475000Y-76387500D03*
X599300000Y-76387500D03*
%TD*%
D14*
%TO.C,C61*%
X562400000Y-123300000D03*
X564300000Y-123300000D03*
%TD*%
D12*
%TO.C,C20*%
X567550000Y-23500000D03*
X565650000Y-23500000D03*
%TD*%
D42*
%TO.C,PS2*%
X602880000Y-152060000D03*
D43*
X605420000Y-152060000D03*
X610500000Y-152060000D03*
X613040000Y-152060000D03*
X615580000Y-152060000D03*
%TD*%
D44*
%TO.C,C21*%
X564950000Y-87200000D03*
X566500000Y-87200000D03*
%TD*%
D36*
%TO.C,Q2*%
X535700000Y-54700000D03*
X535700000Y-56600000D03*
X538100000Y-55650000D03*
%TD*%
D31*
%TO.C,R45*%
X596025000Y-109875000D03*
X596025000Y-108050000D03*
%TD*%
D18*
%TO.C,C22*%
X559900000Y-70850000D03*
X558350000Y-70850000D03*
%TD*%
D10*
%TO.C,C59*%
X593425000Y-109950000D03*
X593425000Y-108050000D03*
%TD*%
D31*
%TO.C,R48*%
X555500000Y-120700000D03*
X555500000Y-118875000D03*
%TD*%
D45*
%TO.C,R29*%
X629680000Y-149960000D03*
X629680000Y-151610000D03*
%TD*%
D12*
%TO.C,C44*%
X620080000Y-142560000D03*
X618180000Y-142560000D03*
%TD*%
D46*
%TO.C,J6*%
X563200000Y-127500000D03*
D47*
X560700000Y-127500000D03*
X558200000Y-127500000D03*
X555700000Y-127500000D03*
X553200000Y-127500000D03*
%TD*%
D14*
%TO.C,C36*%
X602580000Y-148760000D03*
X604480000Y-148760000D03*
%TD*%
D35*
%TO.C,C34*%
X529300000Y-54600000D03*
X529300000Y-56500000D03*
%TD*%
D48*
%TO.C,D1*%
X537000000Y-11000000D03*
X532600000Y-11000000D03*
%TD*%
D31*
%TO.C,R56*%
X532600000Y-87525000D03*
X532600000Y-85700000D03*
%TD*%
D49*
%TO.C,Y1*%
X575000000Y-79500000D03*
X575000000Y-81800000D03*
X576800000Y-81800000D03*
X576800000Y-79500000D03*
%TD*%
D23*
%TO.C,H11*%
X645500000Y-97775000D03*
X645983274Y-96608274D03*
X645983274Y-98941726D03*
X647150000Y-96125000D03*
D24*
X647150000Y-97775000D03*
D23*
X647150000Y-99425000D03*
X648316726Y-96608274D03*
X648316726Y-98941726D03*
X648800000Y-97775000D03*
%TD*%
D19*
%TO.C,R1*%
X569175000Y-79300000D03*
X570825000Y-79300000D03*
%TD*%
D50*
%TO.C,C14*%
X566450000Y-15800000D03*
X569400000Y-15800000D03*
%TD*%
D32*
%TO.C,J3*%
X522900000Y-27080000D03*
D21*
X522900000Y-29620000D03*
D33*
X517820000Y-22000000D03*
X517820000Y-32160000D03*
%TD*%
D10*
%TO.C,C57*%
X593400000Y-52900000D03*
X593400000Y-51000000D03*
%TD*%
D37*
%TO.C,U3*%
X610500000Y-81827500D03*
X610500000Y-80557500D03*
X610500000Y-79287500D03*
X610500000Y-78017500D03*
X605550000Y-78017500D03*
X605550000Y-79287500D03*
X605550000Y-80557500D03*
X605550000Y-81827500D03*
%TD*%
D23*
%TO.C,H10*%
X645500000Y-109600000D03*
X645983274Y-108433274D03*
X645983274Y-110766726D03*
X647150000Y-107950000D03*
D24*
X647150000Y-109600000D03*
D23*
X647150000Y-111250000D03*
X648316726Y-108433274D03*
X648316726Y-110766726D03*
X648800000Y-109600000D03*
%TD*%
%TO.C,H1*%
X645725000Y-24150000D03*
X646208274Y-22983274D03*
X646208274Y-25316726D03*
X647375000Y-22500000D03*
D24*
X647375000Y-24150000D03*
D23*
X647375000Y-25800000D03*
X648541726Y-22983274D03*
X648541726Y-25316726D03*
X649025000Y-24150000D03*
%TD*%
D12*
%TO.C,C43*%
X620075000Y-120650000D03*
X618175000Y-120650000D03*
%TD*%
D25*
%TO.C,Q14*%
X597505000Y-102150000D03*
X599425000Y-102150000D03*
X598465000Y-100050000D03*
%TD*%
D10*
%TO.C,C48*%
X602500000Y-22195000D03*
X602500000Y-20295000D03*
%TD*%
D35*
%TO.C,C60*%
X602525000Y-111050000D03*
X602525000Y-112950000D03*
%TD*%
D14*
%TO.C,C10*%
X545486000Y-18450000D03*
X547386000Y-18450000D03*
%TD*%
D27*
%TO.C,D20*%
X526900000Y-87170000D03*
X526900000Y-85570000D03*
%TD*%
D31*
%TO.C,R51*%
X525050000Y-102200000D03*
X525050000Y-100375000D03*
%TD*%
D51*
%TO.C,IC8*%
X528700000Y-68550000D03*
D52*
X528700000Y-67800000D03*
D51*
X528700000Y-67050000D03*
X526900000Y-67050000D03*
D52*
X526900000Y-67800000D03*
D51*
X526900000Y-68550000D03*
%TD*%
D23*
%TO.C,H16*%
X632025000Y-154250000D03*
X632508274Y-153083274D03*
X632508274Y-155416726D03*
X633675000Y-152600000D03*
D24*
X633675000Y-154250000D03*
D23*
X633675000Y-155900000D03*
X634841726Y-153083274D03*
X634841726Y-155416726D03*
X635325000Y-154250000D03*
%TD*%
D14*
%TO.C,C13*%
X566500000Y-12600000D03*
X568400000Y-12600000D03*
%TD*%
D53*
%TO.C,Q16*%
X523305000Y-139520000D03*
X521385000Y-139520000D03*
X522345000Y-141620000D03*
%TD*%
D31*
%TO.C,R37*%
X596000000Y-24620000D03*
X596000000Y-22795000D03*
%TD*%
D23*
%TO.C,H5*%
X645450000Y-40950000D03*
X645933274Y-39783274D03*
X645933274Y-42116726D03*
X647100000Y-39300000D03*
D24*
X647100000Y-40950000D03*
D23*
X647100000Y-42600000D03*
X648266726Y-39783274D03*
X648266726Y-42116726D03*
X648750000Y-40950000D03*
%TD*%
D12*
%TO.C,C19*%
X555150000Y-23500000D03*
X553250000Y-23500000D03*
%TD*%
D35*
%TO.C,C58*%
X602500000Y-54000000D03*
X602500000Y-55900000D03*
%TD*%
D11*
%TO.C,R6*%
X546300000Y-81800000D03*
X546300000Y-83625000D03*
%TD*%
D13*
%TO.C,R23*%
X517900000Y-67700000D03*
X519725000Y-67700000D03*
%TD*%
%TO.C,R22*%
X518575000Y-39400000D03*
X520400000Y-39400000D03*
%TD*%
D23*
%TO.C,H7*%
X645500000Y-81300000D03*
X645983274Y-80133274D03*
X645983274Y-82466726D03*
X647150000Y-79650000D03*
D24*
X647150000Y-81300000D03*
D23*
X647150000Y-82950000D03*
X648316726Y-80133274D03*
X648316726Y-82466726D03*
X648800000Y-81300000D03*
%TD*%
D10*
%TO.C,C56*%
X602525000Y-107450000D03*
X602525000Y-105550000D03*
%TD*%
%TO.C,C41*%
X524900000Y-39600000D03*
X524900000Y-37700000D03*
%TD*%
D14*
%TO.C,C35*%
X602575000Y-126850000D03*
X604475000Y-126850000D03*
%TD*%
D10*
%TO.C,C50*%
X593400000Y-24670000D03*
X593400000Y-22770000D03*
%TD*%
D54*
%TO.C,K2*%
X625000000Y-14945000D03*
X620000000Y-14945000D03*
X630000000Y-14945000D03*
X625000000Y-7445000D03*
X620000000Y-7445000D03*
X630000000Y-7445000D03*
X605000000Y-7445000D03*
%TD*%
D11*
%TO.C,R60*%
X525485000Y-137520000D03*
X525485000Y-139345000D03*
%TD*%
%TO.C,R7*%
X549100000Y-81800000D03*
X549100000Y-83625000D03*
%TD*%
D25*
%TO.C,Q11*%
X597480000Y-73987500D03*
X599400000Y-73987500D03*
X598440000Y-71887500D03*
%TD*%
D35*
%TO.C,C52*%
X602500000Y-25795000D03*
X602500000Y-27695000D03*
%TD*%
D23*
%TO.C,H4*%
X645500000Y-52725000D03*
X645983274Y-51558274D03*
X645983274Y-53891726D03*
X647150000Y-51075000D03*
D24*
X647150000Y-52725000D03*
D23*
X647150000Y-54375000D03*
X648316726Y-51558274D03*
X648316726Y-53891726D03*
X648800000Y-52725000D03*
%TD*%
D55*
%TO.C,J7*%
X518040000Y-109469000D03*
X518040000Y-112242000D03*
X518040000Y-115014000D03*
X518040000Y-117786000D03*
X518040000Y-120559000D03*
X515200000Y-110855000D03*
X515200000Y-113628000D03*
X515200000Y-116400000D03*
X515200000Y-119173000D03*
D56*
X516620000Y-102519000D03*
X516620000Y-127509000D03*
%TD*%
D23*
%TO.C,H6*%
X646137500Y-31500000D03*
X646620774Y-30333274D03*
X646620774Y-32666726D03*
X647787500Y-29850000D03*
D24*
X647787500Y-31500000D03*
D23*
X647787500Y-33150000D03*
X648954226Y-30333274D03*
X648954226Y-32666726D03*
X649437500Y-31500000D03*
%TD*%
D10*
%TO.C,C6*%
X532500000Y-7500000D03*
X532500000Y-5600000D03*
%TD*%
%TO.C,C55*%
X602500000Y-50400000D03*
X602500000Y-48500000D03*
%TD*%
D57*
%TO.C,D8*%
X512980000Y-65080000D03*
D58*
X512980000Y-67620000D03*
%TD*%
D59*
%TO.C,FB1*%
X545472000Y-11150000D03*
X547472000Y-11150000D03*
%TD*%
D12*
%TO.C,C5*%
X550400000Y-73330000D03*
X548500000Y-73330000D03*
%TD*%
D60*
%TO.C,U1*%
X640375000Y-119950000D03*
D61*
X634335000Y-121245000D03*
X634335000Y-118745000D03*
X637835000Y-121245000D03*
X637835000Y-118745000D03*
X642915000Y-121245000D03*
X642915000Y-118745000D03*
X646415000Y-121245000D03*
X646415000Y-118745000D03*
%TD*%
D23*
%TO.C,H9*%
X646087500Y-60300000D03*
X646570774Y-59133274D03*
X646570774Y-61466726D03*
X647737500Y-58650000D03*
D24*
X647737500Y-60300000D03*
D23*
X647737500Y-61950000D03*
X648904226Y-59133274D03*
X648904226Y-61466726D03*
X649387500Y-60300000D03*
%TD*%
D54*
%TO.C,K4*%
X625025000Y-100150000D03*
X620025000Y-100150000D03*
X630025000Y-100150000D03*
X625025000Y-92650000D03*
X620025000Y-92650000D03*
X630025000Y-92650000D03*
X605025000Y-92650000D03*
X605025000Y-100150000D03*
%TD*%
D62*
%TO.C,LS1*%
X582622227Y-66544455D03*
X582622227Y-61544455D03*
%TD*%
D63*
%TO.C,IC2*%
X546376000Y-75560000D03*
X546376000Y-76830000D03*
X546376000Y-78100000D03*
X546376000Y-79370000D03*
X551800000Y-79370000D03*
X551800000Y-78100000D03*
X551800000Y-76830000D03*
X551800000Y-75560000D03*
%TD*%
D14*
%TO.C,C65*%
X514885000Y-141120000D03*
X516785000Y-141120000D03*
%TD*%
D23*
%TO.C,H2*%
X645725000Y-12450000D03*
X646208274Y-11283274D03*
X646208274Y-13616726D03*
X647375000Y-10800000D03*
D24*
X647375000Y-12450000D03*
D23*
X647375000Y-14100000D03*
X648541726Y-11283274D03*
X648541726Y-13616726D03*
X649025000Y-12450000D03*
%TD*%
D64*
%TO.C,Q15*%
X572722227Y-65750000D03*
X572722227Y-63850000D03*
X570322227Y-64800000D03*
%TD*%
D65*
%TO.C,J2*%
X577300000Y-120020000D03*
D40*
X577300000Y-117480000D03*
X577300000Y-114940000D03*
X577300000Y-112400000D03*
X577300000Y-109860000D03*
X577300000Y-107320000D03*
X577300000Y-104780000D03*
X577300000Y-102240000D03*
X577300000Y-99700000D03*
X577300000Y-97160000D03*
X577300000Y-94620000D03*
X577300000Y-92080000D03*
X577300000Y-89540000D03*
X577300000Y-87000000D03*
%TD*%
D34*
%TO.C,R8*%
X547297000Y-13600000D03*
X545472000Y-13600000D03*
%TD*%
D31*
%TO.C,R5*%
X552400000Y-72700000D03*
X552400000Y-70875000D03*
%TD*%
D66*
%TO.C,C16*%
X568100000Y-20200000D03*
X565150000Y-20200000D03*
%TD*%
D67*
%TO.C,F1*%
X528300000Y-7525000D03*
X530175000Y-7525000D03*
%TD*%
D60*
%TO.C,U5*%
X624000000Y-81587500D03*
D61*
X617960000Y-82882500D03*
X617960000Y-80382500D03*
X621460000Y-82882500D03*
X621460000Y-80382500D03*
X626540000Y-82882500D03*
X626540000Y-80382500D03*
X630040000Y-82882500D03*
X630040000Y-80382500D03*
%TD*%
D38*
%TO.C,C26*%
X552450000Y-83400000D03*
X552450000Y-81850000D03*
%TD*%
D22*
%TO.C,C3*%
X572500000Y-81300000D03*
X572500000Y-82850000D03*
%TD*%
D68*
%TO.C,J9*%
X516315000Y-145310000D03*
X516315000Y-151090000D03*
D69*
X517390000Y-145000000D03*
X517390000Y-145800000D03*
D70*
X517390000Y-146950000D03*
X517390000Y-147950000D03*
X517390000Y-148450000D03*
X517390000Y-149450000D03*
D69*
X517390000Y-150600000D03*
X517390000Y-151400000D03*
X517390000Y-151400000D03*
X517390000Y-150600000D03*
D70*
X517390000Y-149950000D03*
X517390000Y-148950000D03*
X517390000Y-147450000D03*
X517390000Y-146450000D03*
D69*
X517390000Y-145800000D03*
X517390000Y-145000000D03*
D71*
X516815000Y-143880000D03*
D72*
X512635000Y-143880000D03*
D71*
X516815000Y-152520000D03*
D72*
X512635000Y-152520000D03*
%TD*%
D13*
%TO.C,R27*%
X617055000Y-148660000D03*
X618880000Y-148660000D03*
%TD*%
D51*
%TO.C,IC7*%
X530300000Y-40300000D03*
D52*
X530300000Y-39550000D03*
D51*
X530300000Y-38800000D03*
X528500000Y-38800000D03*
D52*
X528500000Y-39550000D03*
D51*
X528500000Y-40300000D03*
%TD*%
D34*
%TO.C,R34*%
X600000000Y-81587500D03*
X598175000Y-81587500D03*
%TD*%
D11*
%TO.C,R54*%
X518985000Y-139995000D03*
X518985000Y-141820000D03*
%TD*%
D35*
%TO.C,C51*%
X602500000Y-82787500D03*
X602500000Y-84687500D03*
%TD*%
D34*
%TO.C,R59*%
X526510000Y-147120000D03*
X524685000Y-147120000D03*
%TD*%
%TO.C,R58*%
X526510000Y-149420000D03*
X524685000Y-149420000D03*
%TD*%
D73*
%TO.C,IC3*%
X556714000Y-12200000D03*
D74*
X559000000Y-5950000D03*
D73*
X561286000Y-12200000D03*
%TD*%
D75*
%TO.C,Q8*%
X623265000Y-122950000D03*
X624535000Y-122950000D03*
X625805000Y-122950000D03*
X627075000Y-122950000D03*
D76*
X627075000Y-117330000D03*
X625805000Y-117330000D03*
X624535000Y-117330000D03*
X623265000Y-117330000D03*
D77*
X625170000Y-119590000D03*
D78*
X623087000Y-117840000D03*
X627253000Y-117840000D03*
%TD*%
D12*
%TO.C,C40*%
X613880000Y-148760000D03*
X611980000Y-148760000D03*
%TD*%
D11*
%TO.C,R25*%
X615580000Y-140935000D03*
X615580000Y-142760000D03*
%TD*%
D14*
%TO.C,C32*%
X598180000Y-146260000D03*
X600080000Y-146260000D03*
%TD*%
D37*
%TO.C,U8*%
X610475000Y-110090000D03*
X610475000Y-108820000D03*
X610475000Y-107550000D03*
X610475000Y-106280000D03*
X605525000Y-106280000D03*
X605525000Y-107550000D03*
X605525000Y-108820000D03*
X605525000Y-110090000D03*
%TD*%
D13*
%TO.C,R21*%
X522300000Y-71900000D03*
X524125000Y-71900000D03*
%TD*%
D79*
%TO.C,Z2*%
X533450000Y-54600000D03*
X531550000Y-54600000D03*
X532500000Y-56800000D03*
%TD*%
D80*
%TO.C,D9*%
X619925000Y-123650000D03*
X615875000Y-123650000D03*
%TD*%
D34*
%TO.C,R44*%
X600050000Y-109850000D03*
X598225000Y-109850000D03*
%TD*%
D75*
%TO.C,Q10*%
X623270000Y-144860000D03*
X624540000Y-144860000D03*
X625810000Y-144860000D03*
X627080000Y-144860000D03*
D76*
X627080000Y-139240000D03*
X625810000Y-139240000D03*
X624540000Y-139240000D03*
X623270000Y-139240000D03*
D77*
X625175000Y-141500000D03*
D78*
X623092000Y-139750000D03*
X627258000Y-139750000D03*
%TD*%
D34*
%TO.C,R36*%
X600025000Y-24595000D03*
X598200000Y-24595000D03*
%TD*%
D54*
%TO.C,K3*%
X625000000Y-43200000D03*
X620000000Y-43200000D03*
X630000000Y-43200000D03*
X625000000Y-35700000D03*
X620000000Y-35700000D03*
X630000000Y-35700000D03*
X605000000Y-35700000D03*
X605000000Y-43200000D03*
%TD*%
D13*
%TO.C,R53*%
X514960000Y-137720000D03*
X516785000Y-137720000D03*
%TD*%
D23*
%TO.C,H3*%
X646075000Y-4800000D03*
X646558274Y-3633274D03*
X646558274Y-5966726D03*
X647725000Y-3150000D03*
D24*
X647725000Y-4800000D03*
D23*
X647725000Y-6450000D03*
X648891726Y-3633274D03*
X648891726Y-5966726D03*
X649375000Y-4800000D03*
%TD*%
D42*
%TO.C,PS1*%
X602890000Y-130150000D03*
D43*
X605430000Y-130150000D03*
X610510000Y-130150000D03*
X613050000Y-130150000D03*
X615590000Y-130150000D03*
%TD*%
D79*
%TO.C,Z1*%
X533100000Y-27600000D03*
X531200000Y-27600000D03*
X532150000Y-29800000D03*
%TD*%
D35*
%TO.C,C67*%
X529600000Y-85600000D03*
X529600000Y-87500000D03*
%TD*%
D15*
%TO.C,R57*%
X522385000Y-145120000D03*
X522385000Y-143470000D03*
%TD*%
D31*
%TO.C,R55*%
X520150000Y-153600000D03*
X520150000Y-151775000D03*
%TD*%
D34*
%TO.C,R17*%
X531100000Y-52400000D03*
X529275000Y-52400000D03*
%TD*%
D10*
%TO.C,C42*%
X523800000Y-67750000D03*
X523800000Y-65850000D03*
%TD*%
D14*
%TO.C,C62*%
X558000000Y-123300000D03*
X559900000Y-123300000D03*
%TD*%
D13*
%TO.C,R30*%
X593675000Y-76487500D03*
X595500000Y-76487500D03*
%TD*%
D81*
%TO.C,Q9*%
X627085000Y-149740000D03*
X625815000Y-149740000D03*
X624545000Y-149740000D03*
X623275000Y-149740000D03*
D82*
X623275000Y-155360000D03*
X624545000Y-155360000D03*
X625815000Y-155360000D03*
X627085000Y-155360000D03*
D83*
X625180000Y-153100000D03*
D84*
X627263000Y-154850000D03*
X623097000Y-154850000D03*
%TD*%
D27*
%TO.C,D3*%
X526800000Y-29200000D03*
X526800000Y-27600000D03*
%TD*%
D57*
%TO.C,D7*%
X512800000Y-36890000D03*
D58*
X512800000Y-39430000D03*
%TD*%
D13*
%TO.C,R31*%
X593675000Y-19445000D03*
X595500000Y-19445000D03*
%TD*%
D12*
%TO.C,C24*%
X555250000Y-31000000D03*
X553350000Y-31000000D03*
%TD*%
D17*
%TO.C,D18*%
X522385000Y-147020000D03*
X521435000Y-147020000D03*
X520485000Y-147020000D03*
X520485000Y-149520000D03*
X521435000Y-149520000D03*
X522385000Y-149520000D03*
%TD*%
D26*
%TO.C,Q3*%
X603175000Y-120510000D03*
X603175000Y-123050000D03*
X612325000Y-123050000D03*
X612325000Y-120510000D03*
%TD*%
D85*
%TO.C,D17*%
X553100000Y-99600000D03*
X554700000Y-99600000D03*
%TD*%
D80*
%TO.C,D10*%
X619980000Y-145560000D03*
X615930000Y-145560000D03*
%TD*%
D10*
%TO.C,C12*%
X553472000Y-13600000D03*
X553472000Y-11700000D03*
%TD*%
D60*
%TO.C,U6*%
X624000000Y-24605000D03*
D61*
X617960000Y-25900000D03*
X617960000Y-23400000D03*
X621460000Y-25900000D03*
X621460000Y-23400000D03*
X626540000Y-25900000D03*
X626540000Y-23400000D03*
X630040000Y-25900000D03*
X630040000Y-23400000D03*
%TD*%
D54*
%TO.C,K1*%
X625000000Y-71987500D03*
X620000000Y-71987500D03*
X630000000Y-71987500D03*
X625000000Y-64487500D03*
X620000000Y-64487500D03*
X630000000Y-64487500D03*
X605000000Y-64487500D03*
X605000000Y-71987500D03*
%TD*%
D13*
%TO.C,R33*%
X597500000Y-19445000D03*
X599325000Y-19445000D03*
%TD*%
%TO.C,R9*%
X545536000Y-16000000D03*
X547361000Y-16000000D03*
%TD*%
D37*
%TO.C,U7*%
X610450000Y-53040000D03*
X610450000Y-51770000D03*
X610450000Y-50500000D03*
X610450000Y-49230000D03*
X605500000Y-49230000D03*
X605500000Y-50500000D03*
X605500000Y-51770000D03*
X605500000Y-53040000D03*
%TD*%
D85*
%TO.C,D16*%
X554500000Y-97600000D03*
X556100000Y-97600000D03*
%TD*%
D13*
%TO.C,R18*%
X598100000Y-120450000D03*
X599925000Y-120450000D03*
%TD*%
D86*
%TO.C,D6*%
X512980000Y-73100000D03*
D58*
X512980000Y-70560000D03*
%TD*%
D17*
%TO.C,IC5*%
X555150000Y-26000000D03*
X554200000Y-26000000D03*
X553250000Y-26000000D03*
X553250000Y-28500000D03*
X555150000Y-28500000D03*
%TD*%
D35*
%TO.C,C1*%
X533917000Y-112061000D03*
X533917000Y-113961000D03*
%TD*%
D87*
%TO.C,D19*%
X530600000Y-89700000D03*
X530600000Y-91600000D03*
X532475000Y-90650000D03*
%TD*%
D88*
%TO.C,IC4*%
X566400000Y-83100000D03*
X566400000Y-82600000D03*
X566400000Y-82100000D03*
X566400000Y-81600000D03*
X566400000Y-81100000D03*
X566400000Y-80600000D03*
X566400000Y-80100000D03*
X566400000Y-79600000D03*
X566400000Y-79100000D03*
X566400000Y-78600000D03*
X566400000Y-78100000D03*
X566400000Y-77600000D03*
X566400000Y-77100000D03*
X566400000Y-76600000D03*
X566400000Y-76100000D03*
X566400000Y-75600000D03*
D89*
X564412000Y-73612000D03*
X563912000Y-73612000D03*
X563412000Y-73612000D03*
X562912000Y-73612000D03*
X562412000Y-73612000D03*
X561912000Y-73612000D03*
X561412000Y-73612000D03*
X560912000Y-73612000D03*
X560412000Y-73612000D03*
X559912000Y-73612000D03*
X559412000Y-73612000D03*
X558912000Y-73612000D03*
X558412000Y-73612000D03*
X557912000Y-73612000D03*
X557412000Y-73612000D03*
X556912000Y-73612000D03*
D88*
X554924000Y-75600000D03*
X554924000Y-76100000D03*
X554924000Y-76600000D03*
X554924000Y-77100000D03*
X554924000Y-77600000D03*
X554924000Y-78100000D03*
X554924000Y-78600000D03*
X554924000Y-79100000D03*
X554924000Y-79600000D03*
X554924000Y-80100000D03*
X554924000Y-80600000D03*
X554924000Y-81100000D03*
X554924000Y-81600000D03*
X554924000Y-82100000D03*
X554924000Y-82600000D03*
X554924000Y-83100000D03*
D89*
X556912000Y-85088000D03*
X557412000Y-85088000D03*
X557912000Y-85088000D03*
X558412000Y-85088000D03*
X558912000Y-85088000D03*
X559412000Y-85088000D03*
X559912000Y-85088000D03*
X560412000Y-85088000D03*
X560912000Y-85088000D03*
X561412000Y-85088000D03*
X561912000Y-85088000D03*
X562412000Y-85088000D03*
X562912000Y-85088000D03*
X563412000Y-85088000D03*
X563912000Y-85088000D03*
X564412000Y-85088000D03*
%TD*%
D31*
%TO.C,R50*%
X558200000Y-120700000D03*
X558200000Y-118875000D03*
%TD*%
D13*
%TO.C,R20*%
X598155000Y-142360000D03*
X599980000Y-142360000D03*
%TD*%
D60*
%TO.C,U10*%
X624025000Y-109860000D03*
D61*
X617985000Y-111155000D03*
X617985000Y-108655000D03*
X621485000Y-111155000D03*
X621485000Y-108655000D03*
X626565000Y-111155000D03*
X626565000Y-108655000D03*
X630065000Y-111155000D03*
X630065000Y-108655000D03*
%TD*%
D66*
%TO.C,C17*%
X555750000Y-20250000D03*
X552800000Y-20250000D03*
%TD*%
D60*
%TO.C,U2*%
X640280000Y-141860000D03*
D61*
X634240000Y-143155000D03*
X634240000Y-140655000D03*
X637740000Y-143155000D03*
X637740000Y-140655000D03*
X642820000Y-143155000D03*
X642820000Y-140655000D03*
X646320000Y-143155000D03*
X646320000Y-140655000D03*
%TD*%
D90*
%TO.C,IC1*%
X531264000Y-114854000D03*
X531264000Y-113584000D03*
X531264000Y-112314000D03*
X531264000Y-111044000D03*
X525840000Y-111044000D03*
X525840000Y-112314000D03*
X525840000Y-113584000D03*
X525840000Y-114854000D03*
%TD*%
D23*
%TO.C,H14*%
X632475000Y-132175000D03*
X632958274Y-131008274D03*
X632958274Y-133341726D03*
X634125000Y-130525000D03*
D24*
X634125000Y-132175000D03*
D23*
X634125000Y-133825000D03*
X635291726Y-131008274D03*
X635291726Y-133341726D03*
X635775000Y-132175000D03*
%TD*%
D25*
%TO.C,Q13*%
X597480000Y-45200000D03*
X599400000Y-45200000D03*
X598440000Y-43100000D03*
%TD*%
D81*
%TO.C,Q7*%
X627080000Y-127790000D03*
X625810000Y-127790000D03*
X624540000Y-127790000D03*
X623270000Y-127790000D03*
D82*
X623270000Y-133410000D03*
X624540000Y-133410000D03*
X625810000Y-133410000D03*
X627080000Y-133410000D03*
D83*
X625175000Y-131150000D03*
D84*
X627258000Y-132900000D03*
X623092000Y-132900000D03*
%TD*%
D16*
%TO.C,C28*%
X569400000Y-36750000D03*
X564400000Y-36750000D03*
%TD*%
D14*
%TO.C,C4*%
X527417000Y-108661000D03*
X529317000Y-108661000D03*
%TD*%
D45*
%TO.C,R28*%
X629675000Y-128000000D03*
X629675000Y-129650000D03*
%TD*%
D60*
%TO.C,U9*%
X624000000Y-52810000D03*
D61*
X617960000Y-54105000D03*
X617960000Y-51605000D03*
X621460000Y-54105000D03*
X621460000Y-51605000D03*
X626540000Y-54105000D03*
X626540000Y-51605000D03*
X630040000Y-54105000D03*
X630040000Y-51605000D03*
%TD*%
D13*
%TO.C,R15*%
X598155000Y-148760000D03*
X599980000Y-148760000D03*
%TD*%
%TO.C,R46*%
X570897227Y-68400000D03*
X572722227Y-68400000D03*
%TD*%
D10*
%TO.C,C66*%
X522700000Y-153650000D03*
X522700000Y-151750000D03*
%TD*%
D91*
%TO.C,C11*%
X550472000Y-13625000D03*
X550472000Y-10675000D03*
%TD*%
D92*
%TO.C,Q5*%
X517650000Y-44800000D03*
X519550000Y-44800000D03*
X518600000Y-42400000D03*
%TD*%
%TO.C,Q6*%
X517950000Y-73100000D03*
X519850000Y-73100000D03*
X518900000Y-70700000D03*
%TD*%
D86*
%TO.C,D5*%
X512800000Y-44630000D03*
D58*
X512800000Y-42090000D03*
%TD*%
D23*
%TO.C,H13*%
X643050000Y-127075000D03*
X643533274Y-125908274D03*
X643533274Y-128241726D03*
X644700000Y-125425000D03*
D24*
X644700000Y-127075000D03*
D23*
X644700000Y-128725000D03*
X645866726Y-125908274D03*
X645866726Y-128241726D03*
X646350000Y-127075000D03*
%TD*%
D31*
%TO.C,R43*%
X596000000Y-52800000D03*
X596000000Y-50975000D03*
%TD*%
D23*
%TO.C,H15*%
X643100000Y-148575000D03*
X643583274Y-147408274D03*
X643583274Y-149741726D03*
X644750000Y-146925000D03*
D24*
X644750000Y-148575000D03*
D23*
X644750000Y-150225000D03*
X645916726Y-147408274D03*
X645916726Y-149741726D03*
X646400000Y-148575000D03*
%TD*%
M02*
